<svg xmlns="http://www.w3.org/2000/svg" xmlns:xlink="http://www.w3.org/1999/xlink" width="45" zoomAndPan="magnify" viewBox="0 0 33.75 30.000001" height="40" preserveAspectRatio="xMidYMid meet" version="1.0"><defs><clipPath id="0fcc2e8cc4"><path d="M 3.277344 1.078125 L 30.332031 1.078125 L 30.332031 28.128906 L 3.277344 28.128906 Z M 3.277344 1.078125 " clip-rule="nonzero"/></clipPath></defs><g clip-path="url(#0fcc2e8cc4)"><path fill="#898686" d="M 16.8125 1.082031 C 9.335938 1.082031 3.277344 7.164062 3.277344 14.667969 C 3.277344 21.40625 8.175781 27.003906 14.585938 28.0625 L 14.585938 18.855469 L 11.140625 18.855469 L 11.140625 14.820312 L 14.585938 14.820312 L 14.585938 11.890625 C 14.585938 8.714844 17.152344 6.5625 20.3125 6.5625 C 21.71875 6.5625 22.597656 6.777344 22.597656 6.777344 L 22.597656 10.164062 L 20.3125 10.164062 C 19.363281 10.164062 18.59375 10.941406 18.59375 11.890625 L 18.59375 14.820312 L 22.28125 14.820312 L 21.765625 18.855469 L 18.59375 18.855469 L 18.59375 28.121094 C 25.210938 27.242188 30.320312 21.546875 30.320312 14.667969 C 30.332031 7.164062 24.273438 1.082031 16.8125 1.082031 Z M 16.8125 1.082031 " fill-opacity="1" fill-rule="nonzero"/></g></svg>