<svg xmlns="http://www.w3.org/2000/svg" xmlns:xlink="http://www.w3.org/1999/xlink" width="80" zoomAndPan="magnify" viewBox="0 0 60 60" height="80" preserveAspectRatio="xMidYMid meet" version="1.0"><path fill="#302d41" d="M 54 30 C 54 16.746094 43.253906 6 30 6 C 16.746094 6 6 16.746094 6 30 C 6 41.980469 14.777344 51.90625 26.25 53.707031 L 26.25 36.9375 L 20.15625 36.9375 L 20.15625 30 L 26.25 30 L 26.25 24.710938 C 26.25 18.699219 29.832031 15.375 35.316406 15.375 C 37.941406 15.375 40.6875 15.84375 40.6875 15.84375 L 40.6875 21.75 L 37.660156 21.75 C 34.679688 21.75 33.75 23.601562 33.75 25.496094 L 33.75 30 L 40.40625 30 L 39.34375 36.9375 L 33.75 36.9375 L 33.75 53.707031 C 45.222656 51.90625 54 41.980469 54 30 " fill-opacity="1" fill-rule="nonzero"/><path fill="#cad3f5" d="M 39.34375 36.9375 L 40.40625 30 L 33.75 30 L 33.75 25.496094 C 33.75 23.601562 34.679688 21.75 37.660156 21.75 L 40.6875 21.75 L 40.6875 15.84375 C 40.6875 15.84375 37.941406 15.375 35.316406 15.375 C 29.832031 15.375 26.25 18.699219 26.25 24.710938 L 26.25 30 L 20.15625 30 L 20.15625 36.9375 L 26.25 36.9375 L 26.25 53.707031 C 27.472656 53.898438 28.722656 54 30 54 C 31.277344 54 32.527344 53.898438 33.75 53.707031 L 33.75 36.9375 L 39.34375 36.9375 " fill-opacity="1" fill-rule="nonzero"/></svg>