<svg xmlns="http://www.w3.org/2000/svg" xmlns:xlink="http://www.w3.org/1999/xlink" width="80" zoomAndPan="magnify" viewBox="0 0 60 60" height="80" preserveAspectRatio="xMidYMid meet" version="1.0"><defs><clipPath id="ae174b46f0"><path d="M 6 6 L 54 6 L 54 54 L 6 54 Z M 6 6 " clip-rule="nonzero"/></clipPath><clipPath id="6f8efc3637"><path d="M 30 6 C 16.746094 6 6 16.746094 6 30 C 6 43.253906 16.746094 54 30 54 C 43.253906 54 54 43.253906 54 30 C 54 16.746094 43.253906 6 30 6 Z M 30 6 " clip-rule="nonzero"/></clipPath><clipPath id="18d73d9195"><path d="M 14.347656 14.347656 L 45.847656 14.347656 L 45.847656 45.847656 L 14.347656 45.847656 Z M 14.347656 14.347656 " clip-rule="nonzero"/></clipPath></defs><g clip-path="url(#ae174b46f0)"><g clip-path="url(#6f8efc3637)"><path fill="#302d41" d="M 6 6 L 54 6 L 54 54 L 6 54 Z M 6 6 " fill-opacity="1" fill-rule="nonzero"/></g></g><g clip-path="url(#18d73d9195)"><path fill="#cad3f5" d="M 23.609375 14.347656 C 18.523438 14.347656 14.347656 18.519531 14.347656 23.609375 L 14.347656 36.585938 C 14.347656 41.667969 18.519531 45.847656 23.609375 45.847656 L 36.585938 45.847656 C 41.667969 45.847656 45.847656 41.675781 45.847656 36.585938 L 45.847656 23.609375 C 45.847656 18.523438 41.675781 14.347656 36.585938 14.347656 Z M 23.609375 17.210938 L 36.585938 17.210938 C 40.125 17.210938 42.984375 20.070312 42.984375 23.609375 L 42.984375 36.585938 C 42.984375 40.125 40.125 42.984375 36.585938 42.984375 L 23.609375 42.984375 C 20.070312 42.984375 17.210938 40.125 17.210938 36.585938 L 17.210938 23.609375 C 17.210938 20.070312 20.070312 17.210938 23.609375 17.210938 Z M 38.554688 20.34375 C 37.832031 20.34375 37.257812 20.917969 37.257812 21.640625 C 37.257812 22.363281 37.832031 22.9375 38.554688 22.9375 C 39.273438 22.9375 39.851562 22.363281 39.851562 21.640625 C 39.851562 20.917969 39.273438 20.34375 38.554688 20.34375 Z M 30.097656 21.507812 C 25.371094 21.507812 21.507812 25.371094 21.507812 30.097656 C 21.507812 34.824219 25.371094 38.6875 30.097656 38.6875 C 34.824219 38.6875 38.6875 34.824219 38.6875 30.097656 C 38.6875 25.371094 34.824219 21.507812 30.097656 21.507812 Z M 30.097656 24.371094 C 33.28125 24.371094 35.824219 26.914062 35.824219 30.097656 C 35.824219 33.28125 33.28125 35.824219 30.097656 35.824219 C 26.914062 35.824219 24.371094 33.28125 24.371094 30.097656 C 24.371094 26.914062 26.914062 24.371094 30.097656 24.371094 Z M 30.097656 24.371094 " fill-opacity="1" fill-rule="nonzero"/></g></svg>