<svg xmlns="http://www.w3.org/2000/svg" xmlns:xlink="http://www.w3.org/1999/xlink" width="45" zoomAndPan="magnify" viewBox="0 0 33.75 30.000001" height="40" preserveAspectRatio="xMidYMid meet" version="1.0"><defs><clipPath id="b4d58eadd3"><path d="M 3.328125 1.078125 L 30.382812 1.078125 L 30.382812 28.128906 L 3.328125 28.128906 Z M 3.328125 1.078125 " clip-rule="nonzero"/></clipPath></defs><path fill="#898686" d="M 16.855469 11.605469 C 15.203125 11.605469 13.855469 12.953125 13.855469 14.601562 C 13.855469 16.253906 15.203125 17.601562 16.855469 17.601562 C 18.503906 17.601562 19.851562 16.253906 19.851562 14.601562 C 19.851562 12.953125 18.503906 11.605469 16.855469 11.605469 Z M 16.855469 11.605469 " fill-opacity="1" fill-rule="nonzero"/><path fill="#898686" d="M 20.882812 7.25 L 12.824219 7.25 C 11 7.25 9.5 8.734375 9.5 10.574219 L 9.5 18.632812 C 9.5 20.457031 10.988281 21.957031 12.824219 21.957031 L 20.882812 21.957031 C 22.710938 21.957031 24.210938 20.46875 24.210938 18.632812 L 24.210938 10.574219 C 24.199219 8.734375 22.710938 7.25 20.882812 7.25 Z M 16.855469 19.113281 C 14.359375 19.113281 12.332031 17.085938 12.332031 14.589844 C 12.332031 12.097656 14.359375 10.070312 16.855469 10.070312 C 19.347656 10.070312 21.375 12.097656 21.375 14.589844 C 21.363281 17.085938 19.335938 19.113281 16.855469 19.113281 Z M 21.691406 10.832031 C 21.09375 10.832031 20.601562 10.339844 20.601562 9.742188 C 20.601562 9.144531 21.09375 8.652344 21.691406 8.652344 C 22.289062 8.652344 22.78125 9.144531 22.78125 9.742188 C 22.78125 10.351562 22.300781 10.832031 21.691406 10.832031 Z M 21.691406 10.832031 " fill-opacity="1" fill-rule="nonzero"/><g clip-path="url(#b4d58eadd3)"><path fill="#898686" d="M 16.855469 1.078125 C 9.382812 1.078125 3.328125 7.132812 3.328125 14.601562 C 3.328125 22.074219 9.382812 28.128906 16.855469 28.128906 C 24.328125 28.128906 30.382812 22.074219 30.382812 14.601562 C 30.371094 7.132812 24.316406 1.078125 16.855469 1.078125 Z M 25.71875 18.632812 C 25.71875 21.300781 23.542969 23.480469 20.871094 23.480469 L 12.824219 23.480469 C 10.15625 23.480469 7.976562 21.300781 7.976562 18.632812 L 7.976562 10.574219 C 7.976562 7.902344 10.15625 5.726562 12.824219 5.726562 L 20.882812 5.726562 C 23.554688 5.726562 25.730469 7.902344 25.730469 10.574219 L 25.730469 18.632812 Z M 25.71875 18.632812 " fill-opacity="1" fill-rule="nonzero"/></g></svg>