<svg xmlns="http://www.w3.org/2000/svg" xmlns:xlink="http://www.w3.org/1999/xlink" width="45" zoomAndPan="magnify" viewBox="0 0 33.75 30.000001" height="40" preserveAspectRatio="xMidYMid meet" version="1.0"><defs><clipPath id="8c5b0ce42b"><path d="M 3.328125 1.078125 L 30.382812 1.078125 L 30.382812 28.128906 L 3.328125 28.128906 Z M 3.328125 1.078125 " clip-rule="nonzero"/></clipPath></defs><g clip-path="url(#8c5b0ce42b)"><path fill="#898686" d="M 16.855469 1.078125 C 9.382812 1.078125 3.328125 7.132812 3.328125 14.601562 C 3.328125 22.074219 9.382812 28.128906 16.855469 28.128906 C 24.324219 28.128906 30.382812 22.074219 30.382812 14.601562 C 30.382812 7.132812 24.324219 1.078125 16.855469 1.078125 Z M 8.609375 8.132812 L 25.082031 8.132812 C 25.121094 8.132812 25.152344 8.152344 25.167969 8.191406 C 25.183594 8.226562 25.175781 8.261719 25.144531 8.289062 L 19.609375 13.546875 L 19.597656 13.554688 L 17.945312 15.125 C 17.785156 15.273438 17.605469 15.390625 17.398438 15.472656 C 17.195312 15.554688 16.980469 15.59375 16.761719 15.59375 C 16.542969 15.59375 16.328125 15.550781 16.125 15.464844 C 15.921875 15.382812 15.742188 15.265625 15.582031 15.109375 L 14.050781 13.625 C 14.050781 13.625 14.046875 13.621094 14.042969 13.617188 L 8.546875 8.289062 C 8.515625 8.261719 8.511719 8.226562 8.523438 8.191406 C 8.539062 8.152344 8.570312 8.132812 8.609375 8.132812 Z M 7.832031 20.164062 L 7.832031 8.859375 C 7.832031 8.820312 7.851562 8.792969 7.890625 8.777344 C 7.925781 8.761719 7.960938 8.765625 7.988281 8.792969 L 13.210938 13.859375 C 13.253906 13.898438 13.253906 13.941406 13.21875 13.984375 L 7.996094 20.222656 C 7.96875 20.257812 7.933594 20.265625 7.894531 20.25 C 7.851562 20.234375 7.832031 20.207031 7.832031 20.164062 Z M 25.25 21.074219 L 8.457031 21.074219 C 8.417969 21.074219 8.390625 21.054688 8.375 21.019531 C 8.359375 20.984375 8.363281 20.953125 8.386719 20.925781 L 13.75 14.519531 C 13.792969 14.46875 13.835938 14.464844 13.882812 14.511719 L 15.058594 15.648438 C 15.53125 16.109375 16.097656 16.339844 16.757812 16.34375 L 16.769531 16.34375 C 17.425781 16.34375 17.988281 16.121094 18.460938 15.667969 L 19.761719 14.433594 C 19.808594 14.390625 19.851562 14.394531 19.894531 14.441406 L 25.320312 20.925781 C 25.34375 20.953125 25.351562 20.984375 25.332031 21.019531 C 25.316406 21.054688 25.289062 21.074219 25.25 21.074219 Z M 25.875 20.164062 C 25.875 20.207031 25.855469 20.234375 25.816406 20.25 C 25.777344 20.265625 25.742188 20.253906 25.714844 20.222656 L 20.433594 13.914062 C 20.394531 13.871094 20.398438 13.828125 20.441406 13.789062 L 25.722656 8.777344 C 25.75 8.75 25.785156 8.746094 25.820312 8.761719 C 25.855469 8.777344 25.875 8.804688 25.875 8.84375 Z M 25.875 20.164062 " fill-opacity="1" fill-rule="nonzero"/></g></svg>