<svg xmlns="http://www.w3.org/2000/svg" xmlns:xlink="http://www.w3.org/1999/xlink" width="80" zoomAndPan="magnify" viewBox="0 0 60 60" height="80" preserveAspectRatio="xMidYMid meet" version="1.0"><defs><clipPath id="2d540120b0"><path d="M 6 6 L 54 6 L 54 54 L 6 54 Z M 6 6 " clip-rule="nonzero"/></clipPath><clipPath id="74f6322563"><path d="M 30 6 C 16.746094 6 6 16.746094 6 30 C 6 43.253906 16.746094 54 30 54 C 43.253906 54 54 43.253906 54 30 C 54 16.746094 43.253906 6 30 6 Z M 30 6 " clip-rule="nonzero"/></clipPath><clipPath id="b3247ec434"><path d="M 14.371094 19.339844 L 45.871094 19.339844 L 45.871094 41.839844 L 14.371094 41.839844 Z M 14.371094 19.339844 " clip-rule="nonzero"/></clipPath></defs><g clip-path="url(#2d540120b0)"><g clip-path="url(#74f6322563)"><path fill="#302d41" d="M 6 6 L 54 6 L 54 54 L 6 54 Z M 6 6 " fill-opacity="1" fill-rule="nonzero"/></g></g><g clip-path="url(#b3247ec434)"><path fill="#cad3f5" d="M 18.015625 19.378906 C 17.644531 19.378906 17.292969 19.445312 16.957031 19.546875 L 20.484375 21.746094 L 39.753906 21.746094 L 43.28125 19.546875 C 42.945312 19.445312 42.597656 19.378906 42.222656 19.378906 Z M 15.734375 20.191406 C 14.914062 20.84375 14.386719 21.824219 14.386719 22.929688 L 14.386719 38.324219 C 14.386719 40.28125 16.015625 41.878906 18.015625 41.878906 L 42.222656 41.878906 C 44.222656 41.878906 45.855469 40.28125 45.855469 38.324219 L 45.855469 22.929688 C 45.855469 21.824219 45.324219 20.84375 44.507812 20.191406 L 30.121094 29.148438 Z M 18.015625 25.789062 L 30.121094 33.328125 L 42.222656 25.789062 L 42.222656 39.507812 L 18.015625 39.507812 Z M 18.015625 25.789062 " fill-opacity="1" fill-rule="nonzero"/></g></svg>