<svg xmlns="http://www.w3.org/2000/svg" xmlns:xlink="http://www.w3.org/1999/xlink" width="80" zoomAndPan="magnify" viewBox="0 0 60 60" height="80" preserveAspectRatio="xMidYMid meet" version="1.0"><defs><clipPath id="c84f22b116"><path d="M 6 6 L 54 6 L 54 54 L 6 54 Z M 6 6 " clip-rule="nonzero"/></clipPath><clipPath id="9901a8742c"><path d="M 30 6 C 16.746094 6 6 16.746094 6 30 C 6 43.253906 16.746094 54 30 54 C 43.253906 54 54 43.253906 54 30 C 54 16.746094 43.253906 6 30 6 Z M 30 6 " clip-rule="nonzero"/></clipPath><clipPath id="3cd7d6bcfe"><path d="M 14 14.601562 L 46 14.601562 L 46 46.851562 L 14 46.851562 Z M 14 14.601562 " clip-rule="nonzero"/></clipPath></defs><g clip-path="url(#c84f22b116)"><g clip-path="url(#9901a8742c)"><path fill="#302d41" d="M 6 6 L 54 6 L 54 54 L 6 54 Z M 6 6 " fill-opacity="1" fill-rule="nonzero"/></g></g><g clip-path="url(#3cd7d6bcfe)"><path fill="#cad3f5" d="M 29.976562 14.601562 C 21.171875 14.601562 14.011719 21.40625 14.011719 29.769531 C 14.011719 33.832031 15.75 37.730469 18.800781 40.582031 L 18.800781 44.929688 C 18.800781 46.117188 20.050781 46.894531 21.117188 46.359375 L 25.3125 44.261719 C 26.84375 44.707031 28.410156 44.9375 29.976562 44.9375 C 38.78125 44.9375 45.941406 38.132812 45.941406 29.769531 C 45.941406 21.40625 38.78125 14.601562 29.976562 14.601562 Z M 30.722656 33.53125 L 27.183594 30.699219 L 18.800781 34.425781 L 27.101562 26.125 C 27.675781 25.550781 28.59375 25.496094 29.230469 26.003906 L 32.769531 28.835938 L 41.152344 25.113281 L 32.851562 33.414062 C 32.273438 33.988281 31.359375 34.039062 30.722656 33.53125 Z M 30.722656 33.53125 " fill-opacity="1" fill-rule="nonzero"/></g></svg>