<svg xmlns="http://www.w3.org/2000/svg" xmlns:xlink="http://www.w3.org/1999/xlink" width="45" zoomAndPan="magnify" viewBox="0 0 33.75 30.000001" height="40" preserveAspectRatio="xMidYMid meet" version="1.0"><defs><clipPath id="0967142fea"><path d="M 3.328125 1.078125 L 30.382812 1.078125 L 30.382812 28.128906 L 3.328125 28.128906 Z M 3.328125 1.078125 " clip-rule="nonzero"/></clipPath></defs><g clip-path="url(#0967142fea)"><path fill="#898686" d="M 16.855469 1.078125 C 9.382812 1.078125 3.328125 7.132812 3.328125 14.601562 C 3.328125 22.074219 9.382812 28.128906 16.855469 28.128906 C 24.328125 28.128906 30.382812 22.074219 30.382812 14.601562 C 30.371094 7.132812 24.316406 1.078125 16.855469 1.078125 Z M 16.855469 23.550781 C 15.941406 23.550781 15.050781 23.433594 14.21875 23.210938 L 12.097656 24.335938 C 11.503906 24.652344 10.765625 24.21875 10.765625 23.539062 L 10.765625 21.546875 C 8.550781 19.886719 7.132812 17.34375 7.132812 14.496094 C 7.132812 9.496094 11.480469 5.445312 16.855469 5.445312 C 22.21875 5.445312 26.574219 9.496094 26.574219 14.496094 C 26.574219 19.5 22.21875 23.550781 16.855469 23.550781 Z M 16.855469 23.550781 " fill-opacity="1" fill-rule="nonzero"/></g><path fill="#898686" d="M 10.144531 17.765625 L 15.296875 12.296875 C 15.542969 12.039062 15.953125 12.039062 16.199219 12.285156 L 18.191406 14.308594 C 18.390625 14.507812 18.691406 14.554688 18.9375 14.414062 L 23.578125 11.816406 L 18.367188 17.285156 C 18.121094 17.542969 17.710938 17.542969 17.464844 17.285156 L 15.589844 15.351562 C 15.390625 15.152344 15.085938 15.105469 14.839844 15.234375 Z M 10.144531 17.765625 " fill-opacity="1" fill-rule="nonzero"/></svg>