<svg xmlns="http://www.w3.org/2000/svg" xmlns:xlink="http://www.w3.org/1999/xlink" width="80" zoomAndPan="magnify" viewBox="0 0 60 60" height="80" preserveAspectRatio="xMidYMid meet" version="1.0"><defs><clipPath id="ce680f9d90"><path d="M 6 6 L 54 6 L 54 54 L 6 54 Z M 6 6 " clip-rule="nonzero"/></clipPath><clipPath id="6466ad4c95"><path d="M 30 6 C 16.746094 6 6 16.746094 6 30 C 6 43.253906 16.746094 54 30 54 C 43.253906 54 54 43.253906 54 30 C 54 16.746094 43.253906 6 30 6 Z M 30 6 " clip-rule="nonzero"/></clipPath><clipPath id="24c4d202ee"><path d="M 15.875 18 L 44.375 18 L 44.375 41.886719 L 15.875 41.886719 Z M 15.875 18 " clip-rule="nonzero"/></clipPath><clipPath id="1ca57e6744"><path d="M 15.875 18 L 44.375 18 L 44.375 33 L 15.875 33 Z M 15.875 18 " clip-rule="nonzero"/></clipPath><clipPath id="a7cd85c849"><path d="M 28 18 L 44.375 18 L 44.375 41.886719 L 28 41.886719 Z M 28 18 " clip-rule="nonzero"/></clipPath></defs><g clip-path="url(#ce680f9d90)"><g clip-path="url(#6466ad4c95)"><path fill="#302d41" d="M 6 6 L 54 6 L 54 54 L 6 54 Z M 6 6 " fill-opacity="1" fill-rule="nonzero"/></g></g><g clip-path="url(#24c4d202ee)"><path fill="#cad3f5" d="M 43.613281 18.382812 C 44.003906 18.707031 44.179688 19.21875 44.066406 19.710938 L 39.246094 40.664062 C 39.144531 41.121094 38.804688 41.492188 38.351562 41.644531 C 37.902344 41.796875 37.402344 41.707031 37.03125 41.410156 L 30.734375 36.351562 L 28.09375 41.023438 C 27.824219 41.5 27.285156 41.769531 26.734375 41.707031 C 26.179688 41.644531 25.71875 41.261719 25.566406 40.738281 L 23.042969 32.066406 L 16.984375 30.875 C 16.386719 30.757812 15.9375 30.273438 15.882812 29.675781 C 15.824219 29.082031 16.171875 28.523438 16.734375 28.296875 L 42.207031 18.160156 C 42.679688 17.96875 43.222656 18.054688 43.613281 18.382812 Z M 22.027344 29.109375 L 24.40625 29.578125 C 24.914062 29.675781 25.320312 30.042969 25.460938 30.53125 L 27.300781 36.855469 L 29.128906 33.625 C 29.328125 33.273438 29.671875 33.03125 30.074219 32.953125 C 30.472656 32.878906 30.886719 32.980469 31.203125 33.234375 L 37.050781 37.933594 L 40.800781 21.636719 Z M 22.027344 29.109375 " fill-opacity="1" fill-rule="evenodd"/></g><g clip-path="url(#1ca57e6744)"><path fill="#cad3f5" d="M 43.457031 20.554688 C 44.0625 20.183594 44.273438 19.417969 43.949219 18.796875 C 43.625 18.171875 42.867188 17.894531 42.207031 18.160156 L 16.734375 28.296875 C 16.171875 28.523438 15.824219 29.082031 15.882812 29.675781 C 15.9375 30.273438 16.386719 30.757812 16.984375 30.875 L 23.867188 32.226562 C 24.210938 32.296875 24.570312 32.230469 24.871094 32.046875 Z M 43.457031 20.554688 " fill-opacity="1" fill-rule="evenodd"/></g><g clip-path="url(#a7cd85c849)"><path fill="#cad3f5" d="M 44.066406 19.710938 C 44.207031 19.097656 43.902344 18.472656 43.328125 18.195312 C 42.753906 17.921875 42.0625 18.070312 41.65625 18.554688 L 29.265625 33.425781 C 28.785156 34.003906 28.871094 34.855469 29.460938 35.328125 L 37.03125 41.410156 C 37.402344 41.707031 37.902344 41.796875 38.351562 41.644531 C 38.804688 41.492188 39.144531 41.121094 39.246094 40.664062 Z M 44.066406 19.710938 " fill-opacity="1" fill-rule="evenodd"/></g></svg>