<svg xmlns="http://www.w3.org/2000/svg" xmlns:xlink="http://www.w3.org/1999/xlink" width="45" zoomAndPan="magnify" viewBox="0 0 33.75 30.000001" height="40" preserveAspectRatio="xMidYMid meet" version="1.0"><defs><clipPath id="fc6238d810"><path d="M 3.328125 1.078125 L 30.382812 1.078125 L 30.382812 28.128906 L 3.328125 28.128906 Z M 3.328125 1.078125 " clip-rule="nonzero"/></clipPath></defs><g clip-path="url(#fc6238d810)"><path fill="#898686" d="M 16.855469 28.128906 C 24.324219 28.128906 30.382812 22.074219 30.382812 14.601562 C 30.382812 7.132812 24.324219 1.078125 16.855469 1.078125 C 9.382812 1.078125 3.328125 7.132812 3.328125 14.601562 C 3.328125 22.074219 9.382812 28.128906 16.855469 28.128906 Z M 24.050781 9.304688 L 21.589844 20.214844 C 21.574219 20.273438 21.554688 20.328125 21.527344 20.382812 C 21.507812 20.414062 21.488281 20.445312 21.46875 20.476562 C 21.382812 20.589844 21.269531 20.675781 21.128906 20.722656 C 20.898438 20.804688 20.644531 20.757812 20.457031 20.601562 L 17.238281 17.96875 L 15.886719 20.398438 C 15.746094 20.648438 15.472656 20.789062 15.191406 20.757812 C 14.90625 20.726562 14.671875 20.523438 14.59375 20.25 L 13.304688 15.738281 L 10.207031 15.117188 C 9.902344 15.054688 9.671875 14.804688 9.644531 14.492188 C 9.640625 14.472656 9.640625 14.453125 9.640625 14.433594 C 9.640625 14.414062 9.640625 14.390625 9.640625 14.371094 C 9.664062 14.109375 9.832031 13.875 10.078125 13.773438 L 23.097656 8.496094 C 23.105469 8.496094 23.113281 8.492188 23.125 8.488281 C 23.230469 8.449219 23.339844 8.4375 23.445312 8.449219 C 23.523438 8.457031 23.601562 8.480469 23.671875 8.515625 C 23.679688 8.519531 23.6875 8.523438 23.695312 8.527344 C 23.792969 8.578125 23.878906 8.652344 23.941406 8.746094 C 23.976562 8.792969 24.003906 8.847656 24.023438 8.902344 C 24.050781 8.96875 24.0625 9.035156 24.066406 9.105469 C 24.070312 9.167969 24.066406 9.238281 24.050781 9.304688 Z M 20.085938 12.042969 L 16.484375 16.445312 C 16.457031 16.480469 16.429688 16.519531 16.410156 16.5625 L 15.480469 18.230469 L 14.683594 15.445312 Z M 20.085938 12.042969 " fill-opacity="1" fill-rule="evenodd"/></g></svg>