<svg xmlns="http://www.w3.org/2000/svg" xmlns:xlink="http://www.w3.org/1999/xlink" width="80" zoomAndPan="magnify" viewBox="0 0 60 60" height="80" preserveAspectRatio="xMidYMid meet" version="1.0"><defs><clipPath id="11595b74be"><path d="M 6 6 L 54 6 L 54 54 L 6 54 Z M 6 6 " clip-rule="nonzero"/></clipPath><clipPath id="1c101279ce"><path d="M 30 6 C 16.746094 6 6 16.746094 6 30 C 6 43.253906 16.746094 54 30 54 C 43.253906 54 54 43.253906 54 30 C 54 16.746094 43.253906 6 30 6 Z M 30 6 " clip-rule="nonzero"/></clipPath><clipPath id="3cd952aa44"><path d="M 17.5 15.417969 L 42.25 15.417969 L 42.25 44.667969 L 17.5 44.667969 Z M 17.5 15.417969 " clip-rule="nonzero"/></clipPath></defs><g clip-path="url(#11595b74be)"><g clip-path="url(#1c101279ce)"><path fill="#302d41" d="M 6 6 L 54 6 L 54 54 L 6 54 Z M 6 6 " fill-opacity="1" fill-rule="nonzero"/></g></g><g clip-path="url(#3cd952aa44)"><path fill="#cad3f5" d="M 35.515625 15.417969 C 35.988281 19.570312 38.277344 22.046875 42.25 22.308594 L 42.25 26.976562 C 39.945312 27.203125 37.929688 26.441406 35.582031 25.003906 L 35.582031 33.734375 C 35.582031 44.824219 23.652344 48.292969 18.859375 40.339844 C 15.777344 35.226562 17.664062 26.25 27.550781 25.890625 L 27.550781 30.8125 C 26.796875 30.933594 25.992188 31.128906 25.253906 31.382812 C 23.058594 32.136719 21.808594 33.550781 22.15625 36.042969 C 22.824219 40.816406 31.460938 42.226562 30.742188 32.898438 L 30.742188 15.429688 L 35.515625 15.429688 Z M 35.515625 15.417969 " fill-opacity="1" fill-rule="nonzero"/></g></svg>