<svg xmlns="http://www.w3.org/2000/svg" xmlns:xlink="http://www.w3.org/1999/xlink" width="45" zoomAndPan="magnify" viewBox="0 0 33.75 30.000001" height="40" preserveAspectRatio="xMidYMid meet" version="1.0"><defs><clipPath id="3596d5f9c8"><path d="M 3.328125 1.078125 L 30.382812 1.078125 L 30.382812 28 L 3.328125 28 Z M 3.328125 1.078125 " clip-rule="nonzero"/></clipPath></defs><path fill="#898686" d="M 10.867188 8.058594 L 20.636719 21.117188 L 22.851562 21.117188 L 13.078125 8.058594 Z M 10.867188 8.058594 " fill-opacity="1" fill-rule="nonzero"/><g clip-path="url(#3596d5f9c8)"><path fill="#898686" d="M 16.839844 1.226562 C 9.460938 1.226562 3.476562 7.207031 3.476562 14.589844 C 3.476562 21.96875 9.460938 27.949219 16.839844 27.949219 C 24.21875 27.949219 30.203125 21.96875 30.203125 14.589844 C 30.203125 7.207031 24.21875 1.226562 16.839844 1.226562 Z M 20.117188 22.160156 L 15.667969 16.214844 L 10.164062 22.160156 L 8.746094 22.160156 L 15.035156 15.367188 L 8.785156 7.015625 L 13.601562 7.015625 L 17.699219 12.492188 L 22.769531 7.015625 L 24.183594 7.015625 L 18.332031 13.335938 L 24.929688 22.160156 Z M 20.117188 22.160156 " fill-opacity="1" fill-rule="nonzero"/></g></svg>