<svg xmlns="http://www.w3.org/2000/svg" xmlns:xlink="http://www.w3.org/1999/xlink" width="80" zoomAndPan="magnify" viewBox="0 0 60 60" height="80" preserveAspectRatio="xMidYMid meet" version="1.0"><defs><clipPath id="6a76bfbb58"><path d="M 7.371094 7.371094 L 52.628906 7.371094 L 52.628906 52.628906 L 7.371094 52.628906 Z M 7.371094 7.371094 " clip-rule="nonzero"/></clipPath><clipPath id="dd2e3813d3"><path d="M 30 7.371094 C 17.503906 7.371094 7.371094 17.503906 7.371094 30 C 7.371094 42.496094 17.503906 52.628906 30 52.628906 C 42.496094 52.628906 52.628906 42.496094 52.628906 30 C 52.628906 17.503906 42.496094 7.371094 30 7.371094 Z M 30 7.371094 " clip-rule="nonzero"/></clipPath></defs><g clip-path="url(#6a76bfbb58)"><g clip-path="url(#dd2e3813d3)"><path fill="#cad3f5" d="M 7.371094 7.371094 L 52.628906 7.371094 L 52.628906 52.628906 L 7.371094 52.628906 Z M 7.371094 7.371094 " fill-opacity="1" fill-rule="nonzero"/></g></g><path fill="#302d41" d="M 19.378906 18.386719 L 36.710938 41.558594 L 40.636719 41.558594 L 23.304688 18.386719 Z M 19.378906 18.386719 " fill-opacity="1" fill-rule="nonzero"/><path fill="#302d41" d="M 29.972656 6.265625 C 16.878906 6.265625 6.265625 16.878906 6.265625 29.972656 C 6.265625 43.066406 16.878906 53.683594 29.972656 53.683594 C 43.066406 53.683594 53.683594 43.066406 53.683594 29.972656 C 53.683594 16.878906 43.066406 6.265625 29.972656 6.265625 Z M 35.785156 43.410156 L 27.894531 32.859375 L 18.125 43.410156 L 15.617188 43.410156 L 26.773438 31.359375 L 15.6875 16.535156 L 24.230469 16.535156 L 31.5 26.253906 L 40.492188 16.535156 L 43.003906 16.535156 L 32.621094 27.753906 L 44.328125 43.410156 Z M 35.785156 43.410156 " fill-opacity="1" fill-rule="nonzero"/></svg>