<svg xmlns="http://www.w3.org/2000/svg" xmlns:xlink="http://www.w3.org/1999/xlink" width="45" zoomAndPan="magnify" viewBox="0 0 33.75 30.000001" height="40" preserveAspectRatio="xMidYMid meet" version="1.0"><defs><clipPath id="9eb551bcc3"><path d="M 3.328125 1.078125 L 30.382812 1.078125 L 30.382812 28.128906 L 3.328125 28.128906 Z M 3.328125 1.078125 " clip-rule="nonzero"/></clipPath></defs><path fill="#898686" d="M 17.136719 7.285156 C 13.1875 7.285156 9.980469 10.492188 9.980469 14.4375 C 9.980469 15.820312 10.378906 17.15625 11.117188 18.316406 L 11.292969 18.585938 L 10.601562 21.066406 L 13.222656 20.445312 L 13.46875 20.597656 C 14.570312 21.253906 15.847656 21.605469 17.136719 21.605469 C 21.082031 21.605469 24.292969 18.398438 24.292969 14.449219 C 24.292969 10.503906 21.082031 7.285156 17.136719 7.285156 Z M 21.210938 17.519531 C 21.140625 17.871094 20.390625 18.316406 19.910156 18.445312 C 18.714844 18.761719 17.03125 17.847656 15.367188 16.394531 C 13.691406 14.941406 12.566406 13.398438 12.707031 12.167969 C 12.765625 11.675781 13.117188 10.867188 13.445312 10.761719 C 13.773438 10.65625 14.007812 10.761719 14.347656 10.867188 C 14.511719 11.054688 14.722656 11.277344 14.957031 11.546875 C 15.273438 11.898438 15.484375 12.214844 15.613281 12.4375 C 15.71875 12.625 15.683594 12.859375 15.519531 13 L 14.945312 13.515625 C 14.839844 13.609375 14.804688 13.761719 14.863281 13.890625 C 15.039062 14.261719 15.449219 15.035156 16.070312 15.574219 C 16.679688 16.113281 17.511719 16.417969 17.910156 16.535156 C 18.039062 16.582031 18.191406 16.523438 18.261719 16.40625 L 18.691406 15.773438 C 18.808594 15.597656 19.042969 15.527344 19.242188 15.609375 C 19.476562 15.714844 19.828125 15.878906 20.214844 16.136719 C 20.507812 16.335938 20.765625 16.511719 20.964844 16.652344 C 21.140625 16.96875 21.28125 17.191406 21.210938 17.519531 Z M 21.210938 17.519531 " fill-opacity="1" fill-rule="nonzero"/><g clip-path="url(#9eb551bcc3)"><path fill="#898686" d="M 16.855469 1.078125 C 9.382812 1.078125 3.328125 7.132812 3.328125 14.601562 C 3.328125 22.074219 9.382812 28.128906 16.855469 28.128906 C 24.328125 28.128906 30.382812 22.074219 30.382812 14.601562 C 30.371094 7.132812 24.316406 1.078125 16.855469 1.078125 Z M 17.136719 23 C 15.683594 23 14.265625 22.636719 13 21.933594 L 8.609375 22.976562 L 9.769531 18.796875 C 8.984375 17.472656 8.574219 15.972656 8.574219 14.425781 C 8.574219 9.707031 12.414062 5.867188 17.136719 5.867188 C 21.855469 5.867188 25.695312 9.71875 25.695312 14.4375 C 25.695312 19.160156 21.855469 23 17.136719 23 Z M 17.136719 23 " fill-opacity="1" fill-rule="nonzero"/></g></svg>