<svg xmlns="http://www.w3.org/2000/svg" xmlns:xlink="http://www.w3.org/1999/xlink" width="80" zoomAndPan="magnify" viewBox="0 0 60 60" height="80" preserveAspectRatio="xMidYMid meet" version="1.0"><defs><clipPath id="5fc417909f"><path d="M 8.171875 8.171875 L 51.828125 8.171875 L 51.828125 51.828125 L 8.171875 51.828125 Z M 8.171875 8.171875 " clip-rule="nonzero"/></clipPath><clipPath id="cd98f331ba"><path d="M 30 8.171875 C 17.945312 8.171875 8.171875 17.945312 8.171875 30 C 8.171875 42.054688 17.945312 51.828125 30 51.828125 C 42.054688 51.828125 51.828125 42.054688 51.828125 30 C 51.828125 17.945312 42.054688 8.171875 30 8.171875 Z M 30 8.171875 " clip-rule="nonzero"/></clipPath></defs><g clip-path="url(#5fc417909f)"><g clip-path="url(#cd98f331ba)"><path fill="#cad3f5" d="M 8.171875 8.171875 L 51.828125 8.171875 L 51.828125 51.828125 L 8.171875 51.828125 Z M 8.171875 8.171875 " fill-opacity="1" fill-rule="nonzero"/></g></g><path fill="#302d41" d="M 30.5 17.011719 C 23.496094 17.011719 17.800781 22.707031 17.800781 29.710938 C 17.800781 32.160156 18.507812 34.53125 19.816406 36.585938 L 20.128906 37.066406 L 18.902344 41.46875 L 23.558594 40.367188 L 23.996094 40.640625 C 25.949219 41.800781 28.214844 42.425781 30.5 42.425781 C 37.5 42.425781 43.195312 36.734375 43.195312 29.730469 C 43.195312 22.726562 37.5 17.011719 30.5 17.011719 Z M 37.730469 35.175781 C 37.605469 35.796875 36.273438 36.585938 35.421875 36.816406 C 33.304688 37.375 30.3125 35.753906 27.359375 33.179688 C 24.390625 30.601562 22.394531 27.859375 22.644531 25.679688 C 22.75 24.804688 23.371094 23.371094 23.953125 23.183594 C 24.535156 22.996094 24.949219 23.183594 25.554688 23.371094 C 25.84375 23.703125 26.21875 24.097656 26.632812 24.578125 C 27.195312 25.199219 27.570312 25.761719 27.796875 26.15625 C 27.984375 26.488281 27.921875 26.902344 27.632812 27.152344 L 26.613281 28.066406 C 26.425781 28.234375 26.363281 28.503906 26.46875 28.734375 C 26.777344 29.398438 27.507812 30.769531 28.609375 31.726562 C 29.6875 32.679688 31.164062 33.222656 31.871094 33.429688 C 32.097656 33.511719 32.367188 33.40625 32.492188 33.199219 L 33.261719 32.078125 C 33.46875 31.765625 33.886719 31.640625 34.238281 31.785156 C 34.65625 31.972656 35.277344 32.265625 35.964844 32.722656 C 36.484375 33.074219 36.941406 33.386719 37.292969 33.636719 C 37.605469 34.199219 37.855469 34.59375 37.730469 35.175781 Z M 37.730469 35.175781 " fill-opacity="1" fill-rule="nonzero"/><path fill="#302d41" d="M 30 6 C 16.742188 6 6 16.742188 6 30 C 6 43.257812 16.742188 54 30 54 C 43.257812 54 54 43.257812 54 30 C 53.980469 16.742188 43.238281 6 30 6 Z M 30.5 44.898438 C 27.921875 44.898438 25.40625 44.253906 23.164062 43.007812 L 15.371094 44.855469 L 17.429688 37.4375 C 16.035156 35.089844 15.308594 32.429688 15.308594 29.6875 C 15.308594 21.3125 22.125 14.5 30.5 14.5 C 38.871094 14.5 45.6875 21.335938 45.6875 29.710938 C 45.6875 38.082031 38.871094 44.898438 30.5 44.898438 Z M 30.5 44.898438 " fill-opacity="1" fill-rule="nonzero"/></svg>