<svg xmlns="http://www.w3.org/2000/svg" xmlns:xlink="http://www.w3.org/1999/xlink" width="45" zoomAndPan="magnify" viewBox="0 0 33.75 30.000001" height="40" preserveAspectRatio="xMidYMid meet" version="1.0"><defs><clipPath id="1fb497e863"><path d="M 3.328125 1.078125 L 30.382812 1.078125 L 30.382812 28.128906 L 3.328125 28.128906 Z M 3.328125 1.078125 " clip-rule="nonzero"/></clipPath></defs><g clip-path="url(#1fb497e863)"><path fill="#898686" d="M 16.855469 1.078125 C 9.382812 1.078125 3.328125 7.132812 3.328125 14.601562 C 3.328125 22.074219 9.382812 28.128906 16.855469 28.128906 C 24.328125 28.128906 30.382812 22.074219 30.382812 14.601562 C 30.371094 7.132812 24.316406 1.078125 16.855469 1.078125 Z M 24.644531 18.386719 C 24.492188 19.382812 23.625 20.109375 22.617188 20.109375 L 11.082031 20.109375 C 10.074219 20.109375 9.207031 19.382812 9.054688 18.386719 C 8.914062 17.460938 8.773438 16.171875 8.761719 14.589844 C 8.773438 13.011719 8.902344 11.734375 9.054688 10.796875 C 9.207031 9.800781 10.074219 9.074219 11.082031 9.074219 L 22.617188 9.074219 C 23.625 9.074219 24.492188 9.800781 24.644531 10.796875 C 24.785156 11.722656 24.921875 13.011719 24.933594 14.589844 C 24.921875 16.171875 24.785156 17.460938 24.644531 18.386719 Z M 24.644531 18.386719 " fill-opacity="1" fill-rule="nonzero"/></g><path fill="#898686" d="M 15.144531 12.402344 L 15.144531 16.792969 L 19.230469 14.601562 Z M 15.144531 12.402344 " fill-opacity="1" fill-rule="nonzero"/></svg>