<svg xmlns="http://www.w3.org/2000/svg" xmlns:xlink="http://www.w3.org/1999/xlink" width="80" zoomAndPan="magnify" viewBox="0 0 60 60" height="80" preserveAspectRatio="xMidYMid meet" version="1.0"><defs><clipPath id="52050c3c80"><path d="M 6 6 L 54 6 L 54 54 L 6 54 Z M 6 6 " clip-rule="nonzero"/></clipPath><clipPath id="49c1d17035"><path d="M 30 6 C 16.746094 6 6 16.746094 6 30 C 6 43.253906 16.746094 54 30 54 C 43.253906 54 54 43.253906 54 30 C 54 16.746094 43.253906 6 30 6 Z M 30 6 " clip-rule="nonzero"/></clipPath><clipPath id="9f1cb86c6b"><path d="M 15.980469 19.574219 L 43.730469 19.574219 L 43.730469 40.574219 L 15.980469 40.574219 Z M 15.980469 19.574219 " clip-rule="nonzero"/></clipPath></defs><g clip-path="url(#52050c3c80)"><g clip-path="url(#49c1d17035)"><path fill="#302d41" d="M 6 6 L 54 6 L 54 54 L 6 54 Z M 6 6 " fill-opacity="1" fill-rule="nonzero"/></g></g><g clip-path="url(#9f1cb86c6b)"><path fill="#cad3f5" d="M 42.957031 23.195312 C 42.703125 21.753906 41.480469 20.703125 40.0625 20.378906 C 37.9375 19.917969 34.007812 19.589844 29.757812 19.589844 C 25.511719 19.589844 21.519531 19.917969 19.394531 20.378906 C 17.980469 20.703125 16.753906 21.6875 16.496094 23.195312 C 16.238281 24.832031 15.980469 27.125 15.980469 30.074219 C 15.980469 33.023438 16.238281 35.316406 16.558594 36.953125 C 16.820312 38.394531 18.042969 39.441406 19.457031 39.769531 C 21.710938 40.226562 25.574219 40.554688 29.824219 40.554688 C 34.074219 40.554688 37.9375 40.226562 40.191406 39.769531 C 41.605469 39.441406 42.828125 38.460938 43.089844 36.953125 C 43.34375 35.316406 43.667969 32.957031 43.734375 30.074219 C 43.601562 27.125 43.28125 24.832031 42.957031 23.195312 Z M 26.285156 34.660156 L 26.285156 25.488281 L 34.136719 30.074219 Z M 26.285156 34.660156 " fill-opacity="1" fill-rule="nonzero"/></g></svg>