<svg xmlns="http://www.w3.org/2000/svg" xmlns:xlink="http://www.w3.org/1999/xlink" width="600" zoomAndPan="magnify" viewBox="0 0 450 56.249996" height="75" preserveAspectRatio="xMidYMid meet" version="1.0"><defs><clipPath id="bea72c64e1"><path d="M 2.960938 45 L 447.039062 45 L 447.039062 47 L 2.960938 47 Z M 2.960938 45 " clip-rule="nonzero"/></clipPath><clipPath id="46783f36c0"><path d="M 114.050781 5.550781 L 144.398438 5.550781 L 144.398438 46.257812 L 114.050781 46.257812 Z M 114.050781 5.550781 " clip-rule="nonzero"/></clipPath><clipPath id="503d751b17"><path d="M 116.484375 46.148438 C 116.546875 46.195312 116.617188 46.21875 116.6875 46.21875 C 116.785156 46.21875 116.878906 46.179688 116.945312 46.097656 C 117.054688 45.957031 117.035156 45.753906 116.894531 45.640625 C 116.878906 45.628906 115.351562 44.394531 115.054688 42.90625 C 114.734375 41.3125 117.019531 29.742188 118.585938 27.554688 C 119.761719 25.914062 121.492188 25.152344 122.25 24.878906 C 122.296875 25.460938 122.449219 26.492188 122.9375 27.222656 C 123.652344 28.289062 125.027344 28.644531 125.085938 28.660156 C 125.113281 28.664062 125.136719 28.667969 125.164062 28.667969 C 125.308594 28.667969 125.441406 28.570312 125.480469 28.421875 C 125.523438 28.246094 125.417969 28.070312 125.242188 28.027344 C 125.230469 28.023438 124.054688 27.722656 123.480469 26.863281 C 123.210938 26.464844 123.066406 25.929688 122.984375 25.464844 C 123.710938 26.234375 124.585938 26.933594 124.632812 26.972656 C 124.695312 27.019531 124.765625 27.042969 124.839844 27.042969 C 124.933594 27.042969 125.027344 27 125.09375 26.921875 C 125.203125 26.78125 125.183594 26.578125 125.042969 26.464844 C 125.027344 26.453125 123.445312 25.183594 122.828125 24.261719 C 121.9375 22.929688 120.273438 19.996094 120.273438 18.917969 C 120.273438 16.445312 122.800781 12.636719 122.828125 12.597656 C 122.925781 12.449219 122.886719 12.246094 122.738281 12.144531 C 122.585938 12.046875 122.386719 12.085938 122.285156 12.234375 C 122.234375 12.3125 121.617188 13.242188 120.992188 14.480469 C 120.894531 13.953125 120.871094 13.164062 121.230469 12.207031 C 122.21875 9.582031 126.066406 6.238281 128.097656 6.238281 C 130.175781 6.238281 133.683594 10.304688 134.316406 11.886719 C 134.640625 12.703125 134.707031 13.519531 134.695312 14.105469 C 133.976562 13.191406 133.261719 12.550781 133.203125 12.496094 C 133.066406 12.378906 132.863281 12.390625 132.742188 12.523438 C 132.625 12.660156 132.636719 12.863281 132.769531 12.984375 C 132.796875 13.007812 135.59375 15.515625 135.59375 17.617188 C 135.59375 19.710938 134.089844 22.867188 133.050781 24.246094 C 132.011719 25.632812 129.800781 27.757812 128.972656 28.035156 C 128.75 28.109375 128.503906 28.121094 128.261719 28.101562 C 128.300781 28.015625 128.34375 27.925781 128.390625 27.835938 C 128.566406 27.484375 128.75 27.117188 128.75 26.71875 C 128.75 26.21875 128.582031 25.570312 128.480469 25.226562 C 129.542969 24.496094 134.289062 21.097656 134.289062 18.589844 C 134.289062 14.230469 130.398438 13.066406 128.097656 13.066406 C 127.589844 13.066406 125.820312 13.140625 124.257812 14.132812 C 122.71875 15.101562 121.90625 16.644531 121.90625 18.589844 C 121.90625 21.195312 127.027344 24.761719 127.820312 25.296875 C 127.902344 25.554688 128.097656 26.246094 128.097656 26.71875 C 128.097656 26.964844 127.957031 27.246094 127.804688 27.546875 C 127.734375 27.6875 127.667969 27.832031 127.605469 27.976562 C 127.226562 27.867188 126.945312 27.730469 126.9375 27.726562 C 126.777344 27.648438 126.582031 27.710938 126.5 27.871094 C 126.421875 28.03125 126.488281 28.226562 126.648438 28.308594 C 126.675781 28.320312 127 28.480469 127.453125 28.605469 C 127.449219 28.628906 127.445312 28.648438 127.445312 28.667969 C 127.445312 29.167969 127.621094 30.355469 127.726562 31.019531 C 127.757812 31.203125 127.769531 31.394531 127.769531 31.582031 L 127.769531 45.894531 C 127.769531 46.074219 127.917969 46.21875 128.097656 46.21875 C 128.277344 46.21875 128.421875 46.074219 128.421875 45.894531 L 128.421875 42.761719 C 128.78125 43.089844 129.261719 43.292969 129.785156 43.292969 L 131.96875 43.292969 L 132.121094 43.863281 C 132.273438 44.421875 132.777344 44.792969 133.339844 44.792969 C 133.410156 44.792969 133.480469 44.789062 133.550781 44.777344 L 134.503906 44.617188 L 134.605469 44.722656 C 134.871094 44.984375 135.234375 45.128906 135.601562 45.128906 C 135.710938 45.128906 135.824219 45.117188 135.9375 45.089844 L 136.519531 44.941406 C 136.535156 44.953125 136.550781 44.960938 136.566406 44.96875 L 136.566406 45.894531 C 136.566406 46.074219 136.714844 46.21875 136.894531 46.21875 C 137.074219 46.21875 137.21875 46.074219 137.21875 45.894531 L 137.21875 45.136719 C 137.324219 45.136719 137.425781 45.125 137.53125 45.097656 L 138.429688 44.859375 C 138.5625 44.886719 138.699219 44.90625 138.835938 44.90625 C 139.125 44.90625 139.414062 44.839844 139.6875 44.707031 L 142.527344 43.289062 C 143.570312 43.214844 144.394531 42.34375 144.394531 41.285156 L 144.394531 33.277344 C 144.394531 32.167969 143.488281 31.269531 142.378906 31.269531 L 139.445312 31.269531 C 139.265625 30.460938 138.667969 27.988281 137.808594 26.847656 C 136.984375 25.75 134.71875 24.691406 133.8125 24.296875 C 134.773438 22.871094 136.246094 19.871094 136.246094 17.617188 C 136.246094 16.699219 135.820312 15.753906 135.285156 14.925781 C 135.351562 14.492188 135.496094 13.085938 134.921875 11.644531 C 134.238281 9.9375 130.546875 5.589844 128.097656 5.589844 C 125.648438 5.589844 121.613281 9.335938 120.621094 11.976562 C 119.980469 13.679688 120.398438 14.949219 120.574219 15.355469 C 120.058594 16.515625 119.625 17.816406 119.625 18.917969 C 119.625 20.273438 121.40625 23.230469 122.050781 24.257812 C 121.222656 24.546875 119.355469 25.363281 118.054688 27.179688 C 116.410156 29.476562 114.058594 41.265625 114.414062 43.035156 C 114.757812 44.753906 116.414062 46.09375 116.484375 46.148438 Z M 122.554688 18.589844 C 122.554688 16.855469 123.246094 15.539062 124.605469 14.679688 C 126.023438 13.785156 127.632812 13.714844 128.097656 13.714844 C 130.15625 13.714844 133.640625 14.742188 133.640625 18.589844 C 133.640625 20.523438 129.800781 23.542969 128.097656 24.699219 C 126.394531 23.542969 122.554688 20.523438 122.554688 18.589844 Z M 133.445312 44.136719 C 133.132812 44.1875 132.835938 43.996094 132.75 43.691406 L 132.175781 41.585938 C 132.152344 41.5 132.164062 41.40625 132.210938 41.328125 C 132.257812 41.25 132.332031 41.191406 132.421875 41.171875 C 132.601562 41.125 132.785156 41.234375 132.832031 41.417969 L 133.191406 42.851562 C 133.292969 43.25 133.5 43.613281 133.789062 43.90625 L 133.9375 44.054688 Z M 135.070312 44.261719 L 134.25 43.445312 C 134.042969 43.238281 133.894531 42.976562 133.824219 42.695312 L 133.464844 41.257812 C 133.417969 41.078125 133.527344 40.894531 133.722656 40.847656 C 133.90625 40.800781 134.089844 40.910156 134.136719 41.09375 L 134.496094 42.527344 C 134.59375 42.925781 134.800781 43.289062 135.089844 43.578125 L 135.933594 44.417969 L 135.777344 44.457031 C 135.527344 44.519531 135.253906 44.445312 135.070312 44.261719 Z M 137.367188 44.46875 C 137.140625 44.523438 136.894531 44.457031 136.730469 44.292969 L 135.554688 43.121094 C 135.347656 42.914062 135.199219 42.65625 135.128906 42.371094 L 134.769531 40.933594 C 134.722656 40.753906 134.832031 40.570312 135.015625 40.523438 L 135.074219 40.507812 C 135.25 40.464844 135.425781 40.5625 135.480469 40.730469 L 136.0625 42.476562 C 136.210938 42.914062 136.460938 43.316406 136.785156 43.644531 L 137.496094 44.351562 C 137.519531 44.375 137.546875 44.390625 137.574219 44.414062 Z M 139.394531 44.125 C 138.914062 44.363281 138.335938 44.269531 137.957031 43.890625 L 137.246094 43.183594 C 136.992188 42.929688 136.796875 42.613281 136.683594 42.273438 L 136.554688 41.890625 L 136.441406 41.554688 L 136.207031 40.847656 C 136.160156 40.707031 136.175781 40.554688 136.25 40.425781 C 136.328125 40.292969 136.449219 40.207031 136.597656 40.175781 C 136.632812 40.167969 136.667969 40.164062 136.699219 40.164062 C 136.910156 40.164062 137.101562 40.292969 137.183594 40.492188 L 137.941406 42.378906 C 138.164062 42.933594 138.695312 43.296875 139.296875 43.296875 L 141.058594 43.296875 Z M 143.742188 33.277344 L 143.742188 41.285156 C 143.742188 42.035156 143.132812 42.644531 142.378906 42.644531 L 139.296875 42.644531 C 138.964844 42.644531 138.667969 42.445312 138.542969 42.136719 L 137.789062 40.25 C 137.578125 39.726562 137.023438 39.429688 136.46875 39.539062 C 136.164062 39.597656 135.902344 39.78125 135.730469 40.039062 C 135.5 39.875 135.207031 39.804688 134.917969 39.878906 L 134.855469 39.894531 C 134.605469 39.957031 134.40625 40.109375 134.273438 40.308594 C 134.0625 40.195312 133.808594 40.15625 133.550781 40.21875 C 133.304688 40.28125 133.101562 40.433594 132.972656 40.632812 C 132.753906 40.515625 132.503906 40.480469 132.261719 40.539062 C 132 40.605469 131.785156 40.769531 131.648438 41 C 131.511719 41.230469 131.476562 41.5 131.546875 41.757812 L 131.789062 42.644531 L 129.785156 42.644531 C 129.035156 42.644531 128.421875 42.035156 128.421875 41.285156 L 128.421875 33.277344 C 128.421875 32.527344 129.035156 31.917969 129.785156 31.917969 L 135.917969 31.917969 C 135.921875 31.917969 135.921875 31.917969 135.921875 31.917969 L 142.378906 31.917969 C 143.132812 31.917969 143.742188 32.527344 143.742188 33.277344 Z M 137.289062 27.238281 C 138.019531 28.207031 138.570312 30.382812 138.773438 31.269531 L 136.371094 31.269531 L 136.882812 29.746094 C 136.9375 29.574219 136.847656 29.390625 136.675781 29.335938 C 136.503906 29.277344 136.320312 29.371094 136.261719 29.539062 L 135.683594 31.269531 L 129.785156 31.269531 C 129.261719 31.269531 128.78125 31.472656 128.421875 31.800781 L 128.421875 31.582031 C 128.421875 31.359375 128.40625 31.136719 128.371094 30.917969 C 128.292969 30.417969 128.113281 29.25 128.101562 28.734375 C 128.21875 28.75 128.339844 28.757812 128.464844 28.757812 C 128.703125 28.757812 128.949219 28.726562 129.179688 28.652344 C 130.046875 28.363281 131.617188 26.882812 132.714844 25.660156 C 132.488281 26.464844 132.097656 27.46875 131.453125 28.113281 C 130.269531 29.289062 129.085938 29.316406 129.074219 29.316406 C 128.894531 29.316406 128.75 29.464844 128.75 29.644531 C 128.75 29.820312 128.894531 29.96875 129.074219 29.96875 C 129.132812 29.96875 130.53125 29.953125 131.914062 28.574219 C 132.972656 27.515625 133.414062 25.714844 133.566406 24.902344 C 134.433594 25.28125 136.566406 26.273438 137.289062 27.238281 Z M 123.214844 45.832031 C 123.21875 45.816406 123.480469 44.5 123.527344 43.804688 C 122.988281 43.503906 121.285156 42.5625 120.496094 42.304688 C 119.988281 42.132812 119.394531 42.304688 119.390625 42.304688 C 119.21875 42.359375 119.035156 42.257812 118.984375 42.085938 C 118.933594 41.914062 119.03125 41.734375 119.203125 41.683594 C 119.230469 41.675781 119.742188 41.53125 120.3125 41.601562 C 120.394531 40.742188 120.601562 38.59375 120.601562 38.09375 C 120.601562 37.847656 120.457031 37.5625 120.308594 37.265625 C 120.132812 36.910156 119.949219 36.546875 119.949219 36.144531 C 119.949219 35.902344 120.015625 35.519531 120.105469 35.035156 C 120.265625 34.144531 120.484375 32.925781 120.292969 32.347656 C 119.996094 31.460938 119.398438 30.851562 119.390625 30.847656 C 119.265625 30.71875 119.265625 30.515625 119.394531 30.386719 C 119.519531 30.261719 119.726562 30.261719 119.851562 30.386719 C 119.882812 30.417969 120.5625 31.105469 120.910156 32.140625 C 121.15625 32.875 120.929688 34.136719 120.746094 35.148438 C 120.671875 35.566406 120.601562 35.960938 120.601562 36.144531 C 120.601562 36.390625 120.742188 36.675781 120.890625 36.972656 C 121.070312 37.328125 121.253906 37.691406 121.253906 38.09375 C 121.253906 38.652344 121.027344 41.003906 120.949219 41.777344 C 121.675781 42.0625 122.773438 42.648438 123.445312 43.015625 C 123.359375 42.703125 123.242188 42.46875 123.242188 42.464844 C 123.164062 42.304688 123.226562 42.109375 123.390625 42.027344 C 123.550781 41.949219 123.746094 42.015625 123.824219 42.175781 C 123.839844 42.203125 124.1875 42.902344 124.1875 43.621094 C 124.1875 44.292969 123.867188 45.890625 123.851562 45.957031 C 123.820312 46.113281 123.6875 46.21875 123.535156 46.21875 C 123.511719 46.21875 123.492188 46.21875 123.46875 46.214844 C 123.292969 46.179688 123.179688 46.007812 123.214844 45.832031 Z M 124.808594 45.007812 C 124.863281 44.542969 124.839844 44.054688 124.738281 43.628906 L 124.519531 42.71875 C 124.480469 42.546875 124.585938 42.371094 124.761719 42.328125 C 124.9375 42.285156 125.113281 42.394531 125.15625 42.570312 L 125.371094 43.480469 C 125.492188 43.976562 125.519531 44.546875 125.457031 45.085938 L 125.355469 45.933594 C 125.335938 46.097656 125.195312 46.21875 125.03125 46.21875 C 125.019531 46.21875 125.007812 46.21875 124.992188 46.21875 C 124.8125 46.195312 124.6875 46.035156 124.707031 45.855469 Z M 128.390625 17.957031 C 128.390625 17.808594 128.289062 17.679688 128.144531 17.640625 L 127.28125 17.425781 C 126.816406 17.308594 126.453125 16.945312 126.332031 16.480469 L 126.117188 15.617188 C 126.078125 15.472656 125.949219 15.375 125.800781 15.375 C 125.652344 15.375 125.519531 15.472656 125.484375 15.617188 L 125.265625 16.480469 C 125.148438 16.945312 124.785156 17.304688 124.316406 17.425781 L 123.453125 17.640625 C 123.308594 17.679688 123.207031 17.808594 123.207031 17.957031 C 123.207031 18.105469 123.308594 18.234375 123.453125 18.273438 L 124.316406 18.488281 C 124.785156 18.609375 125.148438 18.96875 125.265625 19.4375 L 125.484375 20.296875 C 125.519531 20.441406 125.652344 20.542969 125.800781 20.542969 C 125.949219 20.542969 126.078125 20.441406 126.117188 20.296875 L 126.332031 19.4375 C 126.453125 18.96875 126.816406 18.609375 127.28125 18.492188 L 128.144531 18.273438 C 128.289062 18.234375 128.390625 18.105469 128.390625 17.957031 Z M 125.800781 18.988281 C 125.601562 18.523438 125.230469 18.15625 124.765625 17.957031 C 125.230469 17.761719 125.601562 17.390625 125.800781 16.925781 C 125.996094 17.390625 126.367188 17.761719 126.832031 17.957031 C 126.367188 18.15625 125.996094 18.523438 125.800781 18.988281 Z M 125.800781 18.988281 " clip-rule="nonzero"/></clipPath></defs><g clip-path="url(#bea72c64e1)"><path stroke-linecap="butt" transform="matrix(0.74072, 0, 0, 0.740131, -7.586333, 45.518085)" fill="none" stroke-linejoin="miter" d="M 0.000533866 0.498065 L 628.500854 0.498065 " stroke="#6e6c7e" stroke-width="1" stroke-opacity="1" stroke-miterlimit="4"/></g><g clip-path="url(#46783f36c0)"><g clip-path="url(#503d751b17)"><path fill="#6e6c7e" d="M 114.058594 5.589844 L 114.058594 46.21875 L 144.394531 46.21875 L 144.394531 5.589844 Z M 114.058594 5.589844 " fill-opacity="1" fill-rule="nonzero"/></g></g></svg>