<svg xmlns="http://www.w3.org/2000/svg" xmlns:xlink="http://www.w3.org/1999/xlink" width="450" zoomAndPan="magnify" viewBox="0 0 337.5 30.000001" height="40" preserveAspectRatio="xMidYMid meet" version="1.0"><defs><clipPath id="9e3e0bff94"><path d="M 9 19.21875 L 329 19.21875 L 329 26.484375 L 9 26.484375 Z M 9 19.21875 " clip-rule="nonzero"/></clipPath><clipPath id="d408b346c5"><path d="M 286 19.21875 L 330 19.21875 L 330 26 L 286 26 Z M 286 19.21875 " clip-rule="nonzero"/></clipPath><clipPath id="dfa7d91258"><path d="M 8 19.21875 L 52 19.21875 L 52 26.484375 L 8 26.484375 Z M 8 19.21875 " clip-rule="nonzero"/></clipPath><clipPath id="3c39233737"><path d="M 50 19.21875 L 101 19.21875 L 101 21 L 50 21 Z M 50 19.21875 " clip-rule="nonzero"/></clipPath><clipPath id="b45429a459"><path d="M 106 3 L 126.910156 3 L 126.910156 23.988281 L 106 23.988281 Z M 106 3 " clip-rule="nonzero"/></clipPath><clipPath id="0fcf20b6a7"><path d="M 105.832031 13 L 117 13 L 117 23.988281 L 105.832031 23.988281 Z M 105.832031 13 " clip-rule="nonzero"/></clipPath><clipPath id="f73fb78b87"><path d="M 116 2.90625 L 126.910156 2.90625 L 126.910156 14 L 116 14 Z M 116 2.90625 " clip-rule="nonzero"/></clipPath><clipPath id="9627c980db"><path d="M 114 9.808594 L 119 9.808594 L 119 13 L 114 13 Z M 114 9.808594 " clip-rule="nonzero"/></clipPath><clipPath id="791db960bc"><path d="M 113 9.808594 L 119 9.808594 L 119 14 L 113 14 Z M 113 9.808594 " clip-rule="nonzero"/></clipPath><clipPath id="f0b4fde9e9"><path d="M 112.277344 13 L 120.273438 13 L 120.273438 14 L 112.277344 14 Z M 112.277344 13 " clip-rule="nonzero"/></clipPath><clipPath id="73ca2fad2d"><path d="M 113 14 L 116 14 L 116 17.074219 L 113 17.074219 Z M 113 14 " clip-rule="nonzero"/></clipPath><clipPath id="895a0ad52a"><path d="M 116 14 L 120 14 L 120 17.074219 L 116 17.074219 Z M 116 14 " clip-rule="nonzero"/></clipPath></defs><g clip-path="url(#9e3e0bff94)"><path fill="#b8b6b6" d="M 159.164062 26.4375 L 9.863281 26.4375 C 9.761719 26.4375 9.675781 26.398438 9.605469 26.324219 C 9.53125 26.25 9.496094 26.160156 9.496094 26.050781 C 9.496094 25.945312 9.53125 25.855469 9.605469 25.78125 C 9.675781 25.707031 9.761719 25.667969 9.863281 25.667969 L 158.90625 25.667969 L 166.851562 19.28125 L 327.648438 19.28125 C 327.757812 19.265625 327.855469 19.292969 327.941406 19.371094 C 328.023438 19.449219 328.066406 19.542969 328.066406 19.660156 C 328.066406 19.777344 328.023438 19.875 327.941406 19.949219 C 327.855469 20.027344 327.757812 20.058594 327.648438 20.042969 L 167.113281 20.042969 Z M 159.164062 26.4375 " fill-opacity="1" fill-rule="nonzero"/></g><g clip-path="url(#d408b346c5)"><path fill="#b8b6b6" d="M 292.207031 19.222656 L 286.378906 25.339844 L 323.332031 25.339844 L 329.171875 19.222656 Z M 292.207031 19.222656 " fill-opacity="1" fill-rule="nonzero"/></g><g clip-path="url(#dfa7d91258)"><path fill="#b8b6b6" d="M 14.554688 19.984375 L 8.347656 26.480469 L 45.292969 26.480469 L 51.5 19.984375 Z M 14.554688 19.984375 " fill-opacity="1" fill-rule="nonzero"/></g><g clip-path="url(#3c39233737)"><path fill="#b8b6b6" d="M 99.714844 20.753906 L 50.40625 20.753906 C 50.304688 20.753906 50.21875 20.71875 50.144531 20.640625 C 50.074219 20.566406 50.039062 20.476562 50.039062 20.371094 C 50.039062 20.265625 50.074219 20.171875 50.144531 20.097656 C 50.21875 20.023438 50.304688 19.984375 50.40625 19.984375 L 99.714844 19.984375 C 99.816406 19.984375 99.90625 20.023438 99.976562 20.097656 C 100.046875 20.171875 100.085938 20.265625 100.085938 20.371094 C 100.085938 20.476562 100.046875 20.566406 99.976562 20.640625 C 99.90625 20.71875 99.816406 20.753906 99.714844 20.753906 Z M 99.714844 20.753906 " fill-opacity="1" fill-rule="nonzero"/></g><path fill="#b8b6b6" d="M 291.109375 25.332031 L 241.800781 25.332031 C 241.699219 25.332031 241.613281 25.296875 241.542969 25.222656 C 241.472656 25.148438 241.433594 25.058594 241.433594 24.957031 C 241.433594 24.847656 241.46875 24.757812 241.539062 24.683594 C 241.613281 24.609375 241.699219 24.570312 241.800781 24.570312 L 291.109375 24.570312 C 291.210938 24.574219 291.296875 24.609375 291.367188 24.6875 C 291.4375 24.761719 291.472656 24.851562 291.472656 24.957031 C 291.472656 25.058594 291.4375 25.148438 291.367188 25.222656 C 291.296875 25.296875 291.210938 25.332031 291.109375 25.332031 Z M 291.109375 25.332031 " fill-opacity="1" fill-rule="nonzero"/><path fill="#a6a6a6" d="M 116.371094 20.359375 C 118.277344 20.355469 120.003906 19.582031 121.253906 18.328125 C 122.5 17.078125 123.273438 15.351562 123.269531 13.445312 C 123.269531 11.542969 122.492188 9.820312 121.242188 8.574219 C 119.996094 7.328125 118.273438 6.558594 116.371094 6.558594 C 114.472656 6.5625 112.75 7.335938 111.507812 8.582031 C 110.265625 9.828125 109.496094 11.546875 109.5 13.445312 C 109.5 15.339844 110.273438 17.058594 111.515625 18.300781 C 112.761719 19.539062 114.476562 20.308594 116.371094 20.304688 Z M 116.371094 20.304688 C 114.480469 20.300781 112.765625 19.53125 111.527344 18.289062 C 110.289062 17.050781 109.523438 15.335938 109.527344 13.445312 C 109.527344 11.558594 110.296875 9.847656 111.535156 8.613281 C 112.773438 7.375 114.484375 6.613281 116.371094 6.613281 C 118.253906 6.617188 119.960938 7.382812 121.195312 8.621094 C 122.429688 9.859375 123.191406 11.5625 123.1875 13.445312 C 123.1875 15.328125 122.421875 17.027344 121.1875 18.261719 C 119.953125 19.492188 118.25 20.253906 116.371094 20.25 Z M 116.371094 20.304688 " fill-opacity="1" fill-rule="evenodd"/><g clip-path="url(#b45429a459)"><path fill="#737373" d="M 116.371094 23.671875 C 119.191406 23.667969 121.746094 22.519531 123.59375 20.667969 C 125.441406 18.820312 126.582031 16.265625 126.582031 13.445312 C 126.578125 10.628906 125.433594 8.078125 123.585938 6.234375 C 121.734375 4.386719 119.183594 3.246094 116.371094 3.25 C 113.558594 3.253906 111.011719 4.394531 109.167969 6.242188 C 107.324219 8.089844 106.1875 10.636719 106.1875 13.445312 C 106.191406 16.253906 107.332031 18.800781 109.175781 20.640625 C 111.019531 22.480469 113.5625 23.617188 116.371094 23.617188 Z M 116.371094 23.617188 C 113.566406 23.613281 111.023438 22.472656 109.1875 20.628906 C 107.347656 18.789062 106.214844 16.25 106.214844 13.445312 C 106.21875 10.644531 107.355469 8.109375 109.195312 6.273438 C 111.035156 4.4375 113.570312 3.300781 116.371094 3.304688 C 119.167969 3.308594 121.703125 4.445312 123.535156 6.28125 C 125.367188 8.117188 126.5 10.652344 126.5 13.445312 C 126.496094 16.242188 125.359375 18.769531 123.527344 20.601562 C 121.691406 22.429688 119.164062 23.5625 116.371094 23.5625 Z M 116.371094 23.617188 " fill-opacity="1" fill-rule="evenodd"/></g><path fill="#b8b6b6" d="M 107.238281 13.445312 C 107.238281 15.964844 108.265625 18.246094 109.917969 19.898438 C 111.570312 21.546875 113.851562 22.566406 116.371094 22.566406 C 118.886719 22.5625 121.164062 21.539062 122.8125 19.886719 C 124.460938 18.238281 125.476562 15.960938 125.476562 13.445312 C 125.472656 10.933594 124.453125 8.660156 122.804688 7.015625 C 121.15625 5.367188 118.878906 4.351562 116.371094 4.355469 C 113.863281 4.355469 111.589844 5.375 109.949219 7.023438 C 108.304688 8.667969 107.289062 10.941406 107.292969 13.445312 Z M 107.292969 13.445312 C 107.292969 10.941406 108.3125 8.675781 109.957031 7.035156 C 111.601562 5.394531 113.867188 4.378906 116.371094 4.382812 C 118.871094 4.382812 121.136719 5.402344 122.773438 7.042969 C 124.410156 8.683594 125.421875 10.949219 125.421875 13.445312 C 125.417969 15.941406 124.402344 18.203125 122.765625 19.839844 C 121.125 21.476562 118.867188 22.484375 116.371094 22.484375 C 113.878906 22.480469 111.621094 21.46875 109.988281 19.832031 C 108.355469 18.195312 107.34375 15.9375 107.347656 13.445312 Z M 107.292969 13.445312 " fill-opacity="1" fill-rule="evenodd"/><path fill="#545454" d="M 116.371094 5.371094 C 114.144531 5.375 112.128906 6.28125 110.667969 7.746094 C 109.214844 9.207031 108.3125 11.222656 108.316406 13.445312 C 108.320312 15.667969 109.226562 17.675781 110.683594 19.128906 C 112.144531 20.582031 114.152344 21.480469 116.371094 21.476562 C 118.585938 21.472656 120.589844 20.570312 122.039062 19.113281 C 123.488281 17.660156 124.382812 15.65625 124.378906 13.445312 C 124.375 11.238281 123.472656 9.238281 122.023438 7.792969 C 120.574219 6.347656 118.574219 5.457031 116.371094 5.460938 Z M 116.371094 5.460938 C 118.574219 5.464844 120.566406 6.359375 122.007812 7.808594 C 123.449219 9.253906 124.335938 11.246094 124.332031 13.445312 C 124.328125 15.640625 123.433594 17.628906 121.992188 19.066406 C 120.550781 20.503906 118.5625 21.390625 116.371094 21.386719 C 114.179688 21.382812 112.199219 20.492188 110.765625 19.050781 C 109.332031 17.613281 108.445312 15.632812 108.449219 13.445312 C 108.453125 11.261719 109.34375 9.285156 110.78125 7.855469 C 112.210938 6.425781 114.1875 5.542969 116.371094 5.546875 Z M 116.371094 5.460938 " fill-opacity="1" fill-rule="evenodd"/><path fill="#a6a6a6" d="M 116.371094 22.753906 C 118.933594 22.742188 121.253906 21.695312 122.929688 20.003906 C 124.601562 18.320312 125.628906 16.003906 125.621094 13.445312 C 125.609375 10.898438 124.566406 8.59375 122.890625 6.925781 C 121.214844 5.265625 118.910156 4.242188 116.371094 4.253906 C 113.835938 4.265625 111.546875 5.300781 109.890625 6.96875 C 108.242188 8.628906 107.226562 10.921875 107.234375 13.445312 C 107.246094 15.964844 108.273438 18.238281 109.933594 19.882812 C 111.585938 21.523438 113.863281 22.535156 116.371094 22.523438 Z M 116.371094 22.523438 C 113.871094 22.515625 111.605469 21.492188 109.972656 19.84375 C 108.34375 18.203125 107.339844 15.9375 107.351562 13.445312 C 107.359375 10.960938 108.375 8.710938 110.011719 7.089844 C 111.644531 5.46875 113.894531 4.472656 116.371094 4.480469 C 118.839844 4.492188 121.074219 5.503906 122.6875 7.128906 C 124.296875 8.75 125.289062 10.984375 125.277344 13.445312 C 125.269531 15.898438 124.261719 18.121094 122.648438 19.722656 C 121.035156 21.320312 118.816406 22.304688 116.371094 22.296875 Z M 116.371094 22.523438 " fill-opacity="1" fill-rule="evenodd"/><path fill="#737373" d="M 123.035156 13.445312 C 123.035156 17.125 120.050781 20.113281 116.371094 20.113281 L 116.371094 20.566406 C 120.300781 20.566406 123.492188 17.378906 123.492188 13.445312 Z M 123.035156 13.445312 " fill-opacity="1" fill-rule="evenodd"/><path fill="#737373" d="M 109.707031 13.445312 C 109.707031 9.769531 112.691406 6.78125 116.371094 6.78125 L 116.371094 6.324219 C 112.441406 6.324219 109.25 9.515625 109.25 13.445312 Z M 109.707031 13.445312 " fill-opacity="1" fill-rule="evenodd"/><g clip-path="url(#0fcf20b6a7)"><path fill="#a6a6a6" d="M 116.371094 23.246094 C 110.964844 23.246094 106.574219 18.855469 106.574219 13.445312 L 105.832031 13.445312 C 105.832031 19.261719 110.554688 23.984375 116.371094 23.984375 Z M 116.371094 23.246094 " fill-opacity="1" fill-rule="evenodd"/></g><g clip-path="url(#f73fb78b87)"><path fill="#a6a6a6" d="M 116.371094 3.648438 C 121.777344 3.648438 126.167969 8.039062 126.167969 13.445312 L 126.910156 13.445312 C 126.910156 7.628906 122.1875 2.90625 116.371094 2.90625 Z M 116.371094 3.648438 " fill-opacity="1" fill-rule="evenodd"/></g><path fill="#a6a6a6" d="M 113.296875 8.125 C 116.234375 6.425781 119.996094 7.433594 121.691406 10.371094 L 122.335938 10.003906 C 120.433594 6.710938 116.21875 5.582031 112.925781 7.480469 Z M 113.296875 8.125 " fill-opacity="1" fill-rule="evenodd"/><path fill="#a6a6a6" d="M 119.445312 18.765625 C 116.507812 20.464844 112.746094 19.457031 111.050781 16.519531 L 110.726562 17.074219 L 110.40625 16.890625 C 112.308594 20.179688 116.523438 21.308594 119.8125 19.410156 Z M 119.445312 18.765625 " fill-opacity="1" fill-rule="evenodd"/><path fill="#737373" d="M 116.371094 4.605469 C 113.933594 4.617188 111.734375 5.613281 110.140625 7.21875 C 108.558594 8.816406 107.578125 11.019531 107.589844 13.445312 C 107.597656 15.867188 108.589844 18.054688 110.183594 19.632812 C 111.769531 21.210938 113.960938 22.179688 116.371094 22.171875 C 118.773438 22.160156 120.949219 21.175781 122.519531 19.59375 C 124.082031 18.015625 125.046875 15.84375 125.039062 13.445312 C 125.027344 11.058594 124.050781 8.898438 122.476562 7.339844 C 120.910156 5.785156 118.75 4.824219 116.371094 4.835938 Z M 116.371094 4.835938 C 118.742188 4.847656 120.886719 5.816406 122.4375 7.378906 C 123.980469 8.9375 124.933594 11.082031 124.925781 13.445312 C 124.914062 15.800781 123.949219 17.933594 122.398438 19.472656 C 120.851562 21.007812 118.71875 21.953125 116.371094 21.941406 C 114.03125 21.933594 111.914062 20.972656 110.382812 19.433594 C 108.859375 17.894531 107.921875 15.777344 107.929688 13.445312 C 107.941406 11.121094 108.894531 9.019531 110.425781 7.5 C 111.949219 5.988281 114.054688 5.054688 116.371094 5.0625 Z M 116.371094 4.835938 " fill-opacity="1" fill-rule="evenodd"/><g clip-path="url(#9627c980db)"><path fill="#a6a6a6" d="M 117.753906 10.027344 C 117.535156 9.917969 117.050781 9.804688 116.277344 10.027344 C 115.503906 9.804688 115.019531 9.917969 114.800781 10.027344 C 114.582031 10.140625 114.023438 12.917969 114.023438 12.917969 L 116.277344 12.605469 L 118.527344 12.917969 C 118.527344 12.917969 117.972656 10.140625 117.753906 10.027344 " fill-opacity="1" fill-rule="nonzero"/></g><g clip-path="url(#791db960bc)"><path fill="#b8b6b6" d="M 117.753906 10.027344 L 117.792969 9.949219 C 117.652344 9.878906 117.425781 9.8125 117.105469 9.8125 C 116.871094 9.8125 116.589844 9.847656 116.253906 9.945312 L 116.277344 10.027344 L 116.300781 9.945312 C 115.964844 9.847656 115.683594 9.8125 115.449219 9.8125 C 115.128906 9.8125 114.902344 9.878906 114.761719 9.949219 C 114.742188 9.960938 114.726562 9.976562 114.714844 9.988281 C 114.691406 10.015625 114.675781 10.046875 114.65625 10.082031 C 114.621094 10.152344 114.585938 10.246094 114.550781 10.359375 C 114.484375 10.558594 114.414062 10.8125 114.347656 11.089844 C 114.140625 11.914062 113.941406 12.898438 113.941406 12.898438 C 113.9375 12.925781 113.945312 12.957031 113.964844 12.976562 C 113.980469 12.996094 114.007812 13.007812 114.035156 13.003906 L 116.277344 12.695312 L 118.519531 13.003906 C 118.542969 13.007812 118.570312 12.996094 118.589844 12.976562 C 118.609375 12.957031 118.617188 12.925781 118.613281 12.898438 C 118.613281 12.898438 118.472656 12.203125 118.304688 11.496094 C 118.222656 11.140625 118.132812 10.78125 118.046875 10.5 C 118.003906 10.359375 117.964844 10.242188 117.925781 10.148438 C 117.910156 10.105469 117.890625 10.066406 117.871094 10.03125 C 117.859375 10.015625 117.851562 10.003906 117.839844 9.988281 C 117.824219 9.976562 117.8125 9.960938 117.792969 9.949219 L 117.714844 10.105469 L 117.730469 10.078125 L 117.710938 10.101562 C 117.710938 10.101562 117.710938 10.105469 117.714844 10.105469 L 117.730469 10.078125 L 117.710938 10.101562 L 117.714844 10.097656 L 117.710938 10.101562 L 117.714844 10.097656 L 117.710938 10.101562 L 117.714844 10.105469 C 117.71875 10.113281 117.734375 10.132812 117.746094 10.164062 C 117.777344 10.21875 117.808594 10.308594 117.84375 10.417969 C 117.90625 10.609375 117.976562 10.863281 118.042969 11.136719 C 118.148438 11.542969 118.246094 11.992188 118.324219 12.34375 C 118.359375 12.515625 118.390625 12.664062 118.414062 12.769531 C 118.421875 12.820312 118.433594 12.863281 118.4375 12.890625 C 118.441406 12.917969 118.445312 12.933594 118.445312 12.933594 L 118.527344 12.917969 L 118.539062 12.832031 L 116.289062 12.519531 C 116.28125 12.519531 116.273438 12.519531 116.265625 12.519531 L 114.015625 12.832031 L 114.023438 12.917969 L 114.109375 12.933594 C 114.109375 12.933594 114.109375 12.925781 114.113281 12.902344 C 114.144531 12.75 114.285156 12.0625 114.445312 11.402344 C 114.523438 11.070312 114.605469 10.746094 114.683594 10.503906 C 114.71875 10.378906 114.757812 10.277344 114.789062 10.203125 C 114.804688 10.167969 114.816406 10.140625 114.828125 10.121094 C 114.835938 10.113281 114.839844 10.105469 114.839844 10.101562 L 114.84375 10.101562 L 114.835938 10.09375 L 114.84375 10.101562 L 114.835938 10.09375 L 114.84375 10.101562 L 114.820312 10.074219 L 114.835938 10.105469 L 114.84375 10.101562 L 114.820312 10.074219 L 114.835938 10.105469 C 114.949219 10.046875 115.152344 9.984375 115.449219 9.988281 C 115.664062 9.988281 115.933594 10.019531 116.253906 10.113281 C 116.269531 10.117188 116.285156 10.117188 116.300781 10.113281 C 116.621094 10.019531 116.886719 9.988281 117.105469 9.988281 C 117.402344 9.984375 117.605469 10.046875 117.714844 10.105469 L 117.753906 10.027344 " fill-opacity="1" fill-rule="nonzero"/></g><path fill="#737373" d="M 118.425781 12.140625 L 114.128906 12.140625 L 113.761719 13.363281 L 118.792969 13.363281 L 118.425781 12.140625 " fill-opacity="1" fill-rule="nonzero"/><path fill="#b8b6b6" d="M 118.425781 12.140625 L 118.425781 12.054688 L 114.128906 12.054688 C 114.09375 12.054688 114.058594 12.078125 114.046875 12.113281 L 113.679688 13.335938 C 113.671875 13.363281 113.675781 13.390625 113.691406 13.414062 C 113.707031 13.433594 113.734375 13.449219 113.761719 13.449219 L 118.792969 13.449219 C 118.820312 13.449219 118.84375 13.433594 118.859375 13.414062 C 118.875 13.390625 118.882812 13.363281 118.875 13.335938 L 118.503906 12.113281 C 118.496094 12.078125 118.460938 12.054688 118.425781 12.054688 L 118.425781 12.140625 L 118.34375 12.164062 L 118.679688 13.277344 L 113.875 13.277344 L 114.191406 12.226562 L 118.425781 12.226562 L 118.425781 12.140625 L 118.34375 12.164062 L 118.425781 12.140625 " fill-opacity="1" fill-rule="nonzero"/><g clip-path="url(#f0b4fde9e9)"><path fill="#a6a6a6" d="M 112.671875 13.894531 C 112.503906 13.894531 112.371094 13.753906 112.371094 13.585938 C 112.371094 13.414062 112.503906 13.277344 112.671875 13.277344 L 119.882812 13.277344 C 120.046875 13.277344 120.183594 13.414062 120.183594 13.585938 C 120.183594 13.753906 120.046875 13.894531 119.882812 13.894531 L 112.671875 13.894531 " fill-opacity="1" fill-rule="nonzero"/><path fill="#b8b6b6" d="M 119.882812 13.1875 L 112.671875 13.1875 C 112.460938 13.1875 112.285156 13.367188 112.285156 13.585938 C 112.285156 13.800781 112.460938 13.980469 112.671875 13.980469 L 119.882812 13.980469 C 120.09375 13.980469 120.265625 13.800781 120.265625 13.585938 C 120.265625 13.367188 120.09375 13.1875 119.882812 13.1875 Z M 119.882812 13.363281 C 120 13.363281 120.097656 13.460938 120.097656 13.585938 C 120.097656 13.707031 120 13.804688 119.882812 13.804688 L 112.671875 13.804688 C 112.550781 13.804688 112.453125 13.707031 112.453125 13.585938 C 112.453125 13.460938 112.550781 13.363281 112.671875 13.363281 L 119.882812 13.363281 " fill-opacity="1" fill-rule="nonzero"/></g><path fill="#b8b6b6" d="M 115.601562 15.652344 L 115.585938 15.636719 L 115.601562 15.652344 L 115.585938 15.636719 L 115.601562 15.652344 C 115.605469 15.652344 115.679688 15.574219 115.808594 15.496094 C 115.933594 15.417969 116.105469 15.34375 116.292969 15.347656 C 116.390625 15.347656 116.492188 15.363281 116.601562 15.410156 C 116.707031 15.457031 116.820312 15.535156 116.933594 15.652344 C 116.964844 15.6875 117.019531 15.6875 117.054688 15.652344 C 117.085938 15.621094 117.085938 15.566406 117.054688 15.53125 C 116.925781 15.398438 116.796875 15.308594 116.667969 15.253906 C 116.539062 15.195312 116.414062 15.171875 116.292969 15.171875 C 116.175781 15.171875 116.066406 15.195312 115.96875 15.230469 C 115.824219 15.28125 115.703125 15.355469 115.617188 15.417969 C 115.535156 15.480469 115.484375 15.527344 115.484375 15.53125 C 115.449219 15.566406 115.449219 15.621094 115.484375 15.652344 C 115.515625 15.6875 115.570312 15.6875 115.601562 15.652344 " fill-opacity="1" fill-rule="nonzero"/><path fill="#a6a6a6" d="M 114.492188 16.988281 C 113.769531 16.988281 113.183594 16.386719 113.183594 15.648438 C 113.183594 14.90625 113.769531 14.304688 114.492188 14.304688 C 115.210938 14.304688 115.800781 14.90625 115.800781 15.648438 C 115.800781 16.386719 115.210938 16.988281 114.492188 16.988281 " fill-opacity="1" fill-rule="nonzero"/><g clip-path="url(#73ca2fad2d)"><path fill="#b8b6b6" d="M 114.492188 14.21875 C 113.722656 14.21875 113.101562 14.859375 113.101562 15.648438 C 113.101562 16.433594 113.722656 17.074219 114.492188 17.074219 C 115.257812 17.074219 115.882812 16.433594 115.882812 15.648438 C 115.882812 14.859375 115.257812 14.21875 114.492188 14.21875 Z M 114.492188 14.390625 C 115.167969 14.390625 115.714844 14.953125 115.714844 15.648438 C 115.714844 16.339844 115.167969 16.902344 114.492188 16.902344 C 113.816406 16.902344 113.269531 16.339844 113.269531 15.648438 C 113.269531 14.953125 113.816406 14.390625 114.492188 14.390625 " fill-opacity="1" fill-rule="nonzero"/></g><path fill="#545454" d="M 115.394531 15.648438 C 115.394531 16.160156 114.988281 16.574219 114.492188 16.574219 C 113.992188 16.574219 113.589844 16.160156 113.589844 15.648438 C 113.589844 15.136719 113.992188 14.722656 114.492188 14.722656 C 114.988281 14.722656 115.394531 15.136719 115.394531 15.648438 " fill-opacity="1" fill-rule="nonzero"/><path fill="#b8b6b6" d="M 115.394531 15.648438 L 115.308594 15.648438 C 115.308594 15.878906 115.21875 16.089844 115.070312 16.242188 C 114.921875 16.394531 114.71875 16.488281 114.492188 16.488281 C 114.265625 16.488281 114.0625 16.394531 113.914062 16.242188 C 113.765625 16.089844 113.671875 15.878906 113.671875 15.648438 C 113.671875 15.414062 113.765625 15.207031 113.914062 15.054688 C 114.0625 14.902344 114.265625 14.808594 114.492188 14.808594 C 114.71875 14.808594 114.921875 14.902344 115.070312 15.054688 C 115.21875 15.207031 115.308594 15.414062 115.308594 15.648438 L 115.476562 15.648438 C 115.476562 15.089844 115.035156 14.636719 114.492188 14.632812 C 113.945312 14.636719 113.503906 15.089844 113.503906 15.648438 C 113.503906 16.207031 113.945312 16.660156 114.492188 16.660156 C 115.035156 16.660156 115.476562 16.207031 115.476562 15.648438 L 115.394531 15.648438 " fill-opacity="1" fill-rule="nonzero"/><path fill="#a6a6a6" d="M 118.0625 16.988281 C 117.339844 16.988281 116.753906 16.386719 116.753906 15.648438 C 116.753906 14.90625 117.339844 14.304688 118.0625 14.304688 C 118.785156 14.304688 119.371094 14.90625 119.371094 15.648438 C 119.371094 16.386719 118.785156 16.988281 118.0625 16.988281 " fill-opacity="1" fill-rule="nonzero"/><g clip-path="url(#895a0ad52a)"><path fill="#b8b6b6" d="M 118.0625 14.21875 C 117.292969 14.21875 116.671875 14.859375 116.671875 15.648438 C 116.671875 16.433594 117.292969 17.074219 118.0625 17.074219 C 118.828125 17.074219 119.453125 16.433594 119.453125 15.648438 C 119.453125 14.859375 118.828125 14.21875 118.0625 14.21875 Z M 118.0625 14.390625 C 118.738281 14.390625 119.285156 14.953125 119.285156 15.648438 C 119.285156 16.339844 118.738281 16.902344 118.0625 16.902344 C 117.386719 16.902344 116.839844 16.339844 116.839844 15.648438 C 116.839844 14.953125 117.386719 14.390625 118.0625 14.390625 " fill-opacity="1" fill-rule="nonzero"/></g><path fill="#545454" d="M 118.964844 15.648438 C 118.964844 16.160156 118.5625 16.574219 118.0625 16.574219 C 117.5625 16.574219 117.160156 16.160156 117.160156 15.648438 C 117.160156 15.136719 117.5625 14.722656 118.0625 14.722656 C 118.5625 14.722656 118.964844 15.136719 118.964844 15.648438 " fill-opacity="1" fill-rule="nonzero"/><path fill="#b8b6b6" d="M 118.964844 15.648438 L 118.878906 15.648438 C 118.878906 15.878906 118.789062 16.089844 118.640625 16.242188 C 118.492188 16.394531 118.289062 16.488281 118.0625 16.488281 C 117.835938 16.488281 117.632812 16.394531 117.484375 16.242188 C 117.335938 16.089844 117.242188 15.878906 117.242188 15.648438 C 117.242188 15.414062 117.335938 15.207031 117.484375 15.054688 C 117.632812 14.902344 117.835938 14.808594 118.0625 14.808594 C 118.289062 14.808594 118.492188 14.902344 118.640625 15.054688 C 118.789062 15.207031 118.878906 15.414062 118.878906 15.648438 L 119.050781 15.648438 C 119.050781 15.089844 118.605469 14.636719 118.0625 14.632812 C 117.515625 14.636719 117.074219 15.089844 117.074219 15.648438 C 117.074219 16.207031 117.515625 16.660156 118.0625 16.660156 C 118.605469 16.660156 119.050781 16.207031 119.050781 15.648438 L 118.964844 15.648438 " fill-opacity="1" fill-rule="nonzero"/></svg>