<svg xmlns="http://www.w3.org/2000/svg" xmlns:xlink="http://www.w3.org/1999/xlink" width="600" zoomAndPan="magnify" viewBox="0 0 450 56.249996" height="75" preserveAspectRatio="xMidYMid meet" version="1.0"><defs><clipPath id="0a2e29d9fd"><path d="M 2.960938 45 L 447.039062 45 L 447.039062 47 L 2.960938 47 Z M 2.960938 45 " clip-rule="nonzero"/></clipPath><clipPath id="91f85268c6"><path d="M 103 5.550781 L 133.296875 5.550781 L 133.296875 46.257812 L 103 46.257812 Z M 103 5.550781 " clip-rule="nonzero"/></clipPath><clipPath id="0003ae782e"><path d="M 105.382812 46.148438 C 105.445312 46.195312 105.515625 46.21875 105.585938 46.21875 C 105.683594 46.21875 105.777344 46.179688 105.84375 46.097656 C 105.953125 45.957031 105.933594 45.753906 105.792969 45.640625 C 105.777344 45.628906 104.25 44.394531 103.953125 42.90625 C 103.632812 41.3125 105.917969 29.742188 107.484375 27.554688 C 108.660156 25.914062 110.390625 25.152344 111.148438 24.878906 C 111.195312 25.460938 111.347656 26.492188 111.835938 27.222656 C 112.550781 28.289062 113.925781 28.644531 113.984375 28.660156 C 114.007812 28.664062 114.035156 28.667969 114.0625 28.667969 C 114.207031 28.667969 114.339844 28.570312 114.378906 28.421875 C 114.421875 28.246094 114.316406 28.070312 114.140625 28.027344 C 114.128906 28.023438 112.953125 27.722656 112.378906 26.863281 C 112.109375 26.464844 111.964844 25.929688 111.882812 25.464844 C 112.609375 26.234375 113.484375 26.933594 113.53125 26.972656 C 113.59375 27.019531 113.664062 27.042969 113.734375 27.042969 C 113.832031 27.042969 113.925781 27 113.992188 26.921875 C 114.101562 26.78125 114.082031 26.578125 113.941406 26.464844 C 113.921875 26.453125 112.34375 25.183594 111.726562 24.261719 C 110.835938 22.929688 109.171875 19.996094 109.171875 18.917969 C 109.171875 16.445312 111.699219 12.636719 111.726562 12.597656 C 111.824219 12.449219 111.785156 12.246094 111.636719 12.144531 C 111.484375 12.046875 111.285156 12.085938 111.183594 12.234375 C 111.132812 12.3125 110.515625 13.242188 109.890625 14.480469 C 109.792969 13.953125 109.769531 13.164062 110.128906 12.207031 C 111.117188 9.582031 114.964844 6.238281 116.996094 6.238281 C 119.074219 6.238281 122.582031 10.304688 123.214844 11.886719 C 123.539062 12.703125 123.601562 13.519531 123.59375 14.105469 C 122.871094 13.191406 122.160156 12.550781 122.101562 12.496094 C 121.964844 12.378906 121.761719 12.390625 121.640625 12.523438 C 121.519531 12.660156 121.535156 12.863281 121.667969 12.984375 C 121.695312 13.007812 124.492188 15.515625 124.492188 17.617188 C 124.492188 19.710938 122.988281 22.867188 121.949219 24.246094 C 120.90625 25.632812 118.699219 27.757812 117.871094 28.035156 C 117.648438 28.109375 117.402344 28.121094 117.160156 28.101562 C 117.199219 28.015625 117.242188 27.925781 117.285156 27.835938 C 117.464844 27.484375 117.648438 27.117188 117.648438 26.71875 C 117.648438 26.21875 117.480469 25.570312 117.378906 25.226562 C 118.441406 24.496094 123.1875 21.097656 123.1875 18.589844 C 123.1875 14.230469 119.296875 13.066406 116.996094 13.066406 C 116.488281 13.066406 114.71875 13.140625 113.15625 14.132812 C 111.617188 15.101562 110.800781 16.644531 110.800781 18.589844 C 110.800781 21.195312 115.925781 24.761719 116.71875 25.296875 C 116.796875 25.554688 116.996094 26.246094 116.996094 26.71875 C 116.996094 26.964844 116.855469 27.246094 116.703125 27.546875 C 116.632812 27.6875 116.566406 27.832031 116.503906 27.976562 C 116.125 27.867188 115.84375 27.730469 115.835938 27.726562 C 115.675781 27.648438 115.480469 27.710938 115.398438 27.871094 C 115.320312 28.03125 115.382812 28.226562 115.546875 28.308594 C 115.574219 28.320312 115.898438 28.480469 116.351562 28.605469 C 116.347656 28.628906 116.34375 28.648438 116.34375 28.667969 C 116.34375 29.167969 116.519531 30.355469 116.625 31.019531 C 116.652344 31.203125 116.667969 31.394531 116.667969 31.582031 L 116.667969 45.894531 C 116.667969 46.074219 116.816406 46.21875 116.996094 46.21875 C 117.175781 46.21875 117.320312 46.074219 117.320312 45.894531 L 117.320312 42.761719 C 117.679688 43.089844 118.160156 43.292969 118.683594 43.292969 L 120.863281 43.292969 L 121.019531 43.863281 C 121.171875 44.421875 121.675781 44.792969 122.238281 44.792969 C 122.308594 44.792969 122.378906 44.789062 122.449219 44.777344 L 123.402344 44.617188 L 123.503906 44.722656 C 123.769531 44.984375 124.132812 45.128906 124.5 45.128906 C 124.609375 45.128906 124.722656 45.117188 124.835938 45.089844 L 125.417969 44.941406 C 125.433594 44.953125 125.449219 44.960938 125.464844 44.96875 L 125.464844 45.894531 C 125.464844 46.074219 125.613281 46.21875 125.792969 46.21875 C 125.972656 46.21875 126.117188 46.074219 126.117188 45.894531 L 126.117188 45.136719 C 126.222656 45.136719 126.324219 45.125 126.429688 45.097656 L 127.328125 44.859375 C 127.460938 44.886719 127.597656 44.90625 127.734375 44.90625 C 128.023438 44.90625 128.3125 44.839844 128.582031 44.707031 L 131.425781 43.289062 C 132.464844 43.214844 133.292969 42.34375 133.292969 41.285156 L 133.292969 33.277344 C 133.292969 32.167969 132.386719 31.269531 131.277344 31.269531 L 128.339844 31.269531 C 128.164062 30.460938 127.566406 27.988281 126.707031 26.847656 C 125.882812 25.75 123.617188 24.691406 122.710938 24.296875 C 123.671875 22.871094 125.140625 19.871094 125.144531 17.617188 C 125.144531 16.699219 124.71875 15.753906 124.183594 14.925781 C 124.25 14.492188 124.394531 13.085938 123.816406 11.644531 C 123.136719 9.9375 119.445312 5.589844 116.996094 5.589844 C 114.546875 5.589844 110.511719 9.335938 109.519531 11.976562 C 108.878906 13.679688 109.296875 14.949219 109.472656 15.355469 C 108.957031 16.515625 108.519531 17.816406 108.519531 18.917969 C 108.519531 20.273438 110.304688 23.230469 110.949219 24.257812 C 110.121094 24.546875 108.253906 25.363281 106.953125 27.179688 C 105.308594 29.476562 102.957031 41.265625 103.3125 43.035156 C 103.65625 44.753906 105.3125 46.09375 105.382812 46.148438 Z M 111.453125 18.589844 C 111.453125 16.855469 112.144531 15.539062 113.503906 14.679688 C 114.921875 13.785156 116.53125 13.714844 116.996094 13.714844 C 119.054688 13.714844 122.535156 14.742188 122.535156 18.589844 C 122.535156 20.523438 118.695312 23.542969 116.996094 24.699219 C 115.292969 23.542969 111.453125 20.523438 111.453125 18.589844 Z M 122.34375 44.136719 C 122.03125 44.1875 121.734375 43.996094 121.648438 43.691406 L 121.074219 41.585938 C 121.050781 41.5 121.0625 41.40625 121.109375 41.328125 C 121.15625 41.25 121.230469 41.191406 121.320312 41.171875 C 121.5 41.125 121.683594 41.234375 121.730469 41.417969 L 122.089844 42.851562 C 122.191406 43.25 122.398438 43.613281 122.6875 43.90625 L 122.835938 44.054688 Z M 123.964844 44.261719 L 123.148438 43.445312 C 122.941406 43.238281 122.792969 42.976562 122.722656 42.695312 L 122.363281 41.257812 C 122.316406 41.078125 122.425781 40.894531 122.621094 40.847656 C 122.804688 40.800781 122.988281 40.910156 123.03125 41.09375 L 123.394531 42.527344 C 123.492188 42.925781 123.699219 43.289062 123.988281 43.578125 L 124.832031 44.417969 L 124.675781 44.457031 C 124.425781 44.519531 124.152344 44.445312 123.964844 44.261719 Z M 126.265625 44.46875 C 126.039062 44.523438 125.792969 44.457031 125.625 44.292969 L 124.449219 43.121094 C 124.242188 42.914062 124.097656 42.65625 124.027344 42.371094 L 123.667969 40.933594 C 123.621094 40.753906 123.730469 40.570312 123.914062 40.523438 L 123.972656 40.507812 C 124.148438 40.464844 124.320312 40.5625 124.378906 40.730469 L 124.960938 42.476562 C 125.109375 42.914062 125.359375 43.316406 125.683594 43.644531 L 126.394531 44.351562 C 126.417969 44.375 126.445312 44.390625 126.472656 44.414062 Z M 128.292969 44.125 C 127.8125 44.363281 127.234375 44.269531 126.855469 43.890625 L 126.144531 43.183594 C 125.890625 42.929688 125.695312 42.613281 125.582031 42.273438 L 125.453125 41.890625 L 125.339844 41.554688 L 125.105469 40.847656 C 125.058594 40.707031 125.074219 40.554688 125.148438 40.425781 C 125.222656 40.292969 125.347656 40.207031 125.496094 40.175781 C 125.53125 40.167969 125.5625 40.164062 125.597656 40.164062 C 125.808594 40.164062 126 40.292969 126.082031 40.492188 L 126.835938 42.378906 C 127.0625 42.933594 127.59375 43.296875 128.195312 43.296875 L 129.957031 43.296875 Z M 132.640625 33.277344 L 132.640625 41.285156 C 132.640625 42.035156 132.03125 42.644531 131.277344 42.644531 L 128.195312 42.644531 C 127.863281 42.644531 127.566406 42.445312 127.441406 42.136719 L 126.6875 40.25 C 126.476562 39.726562 125.921875 39.429688 125.367188 39.539062 C 125.0625 39.597656 124.800781 39.78125 124.628906 40.039062 C 124.398438 39.875 124.105469 39.804688 123.816406 39.878906 L 123.753906 39.894531 C 123.503906 39.957031 123.304688 40.109375 123.171875 40.308594 C 122.960938 40.195312 122.707031 40.15625 122.449219 40.21875 C 122.203125 40.28125 122 40.433594 121.867188 40.632812 C 121.652344 40.515625 121.402344 40.480469 121.160156 40.539062 C 120.898438 40.605469 120.679688 40.769531 120.546875 41 C 120.410156 41.230469 120.375 41.5 120.445312 41.757812 L 120.6875 42.644531 L 118.683594 42.644531 C 117.933594 42.644531 117.320312 42.035156 117.320312 41.285156 L 117.320312 33.277344 C 117.320312 32.527344 117.933594 31.917969 118.683594 31.917969 L 124.816406 31.917969 C 124.816406 31.917969 124.816406 31.917969 124.820312 31.917969 L 131.277344 31.917969 C 132.027344 31.917969 132.640625 32.527344 132.640625 33.277344 Z M 126.1875 27.238281 C 126.917969 28.207031 127.46875 30.382812 127.671875 31.269531 L 125.269531 31.269531 L 125.777344 29.746094 C 125.835938 29.574219 125.742188 29.390625 125.574219 29.335938 C 125.402344 29.277344 125.21875 29.371094 125.160156 29.539062 L 124.582031 31.269531 L 118.683594 31.269531 C 118.160156 31.269531 117.679688 31.472656 117.320312 31.800781 L 117.320312 31.582031 C 117.320312 31.359375 117.304688 31.136719 117.269531 30.917969 C 117.191406 30.417969 117.011719 29.25 116.996094 28.734375 C 117.117188 28.75 117.238281 28.757812 117.363281 28.757812 C 117.601562 28.757812 117.847656 28.726562 118.078125 28.652344 C 118.945312 28.363281 120.515625 26.882812 121.613281 25.660156 C 121.386719 26.464844 120.996094 27.46875 120.351562 28.113281 C 119.167969 29.289062 117.984375 29.316406 117.972656 29.316406 C 117.792969 29.316406 117.648438 29.464844 117.648438 29.644531 C 117.648438 29.820312 117.792969 29.96875 117.972656 29.96875 C 118.03125 29.96875 119.425781 29.953125 120.8125 28.574219 C 121.867188 27.515625 122.3125 25.714844 122.464844 24.902344 C 123.332031 25.28125 125.464844 26.273438 126.1875 27.238281 Z M 112.113281 45.832031 C 112.117188 45.816406 112.378906 44.5 112.425781 43.804688 C 111.882812 43.503906 110.183594 42.5625 109.394531 42.304688 C 108.886719 42.132812 108.292969 42.304688 108.289062 42.304688 C 108.117188 42.359375 107.933594 42.257812 107.882812 42.085938 C 107.832031 41.914062 107.929688 41.734375 108.101562 41.683594 C 108.128906 41.675781 108.636719 41.53125 109.210938 41.601562 C 109.292969 40.742188 109.5 38.59375 109.5 38.09375 C 109.5 37.847656 109.355469 37.5625 109.207031 37.265625 C 109.03125 36.910156 108.847656 36.546875 108.847656 36.144531 C 108.847656 35.902344 108.914062 35.519531 109.003906 35.035156 C 109.164062 34.144531 109.382812 32.925781 109.1875 32.347656 C 108.894531 31.460938 108.296875 30.851562 108.289062 30.847656 C 108.164062 30.71875 108.164062 30.515625 108.289062 30.386719 C 108.417969 30.261719 108.625 30.261719 108.75 30.386719 C 108.78125 30.417969 109.460938 31.105469 109.808594 32.140625 C 110.054688 32.875 109.828125 34.136719 109.644531 35.148438 C 109.570312 35.566406 109.5 35.960938 109.5 36.144531 C 109.5 36.390625 109.640625 36.675781 109.789062 36.972656 C 109.96875 37.328125 110.148438 37.691406 110.148438 38.09375 C 110.148438 38.652344 109.921875 41.003906 109.847656 41.777344 C 110.570312 42.0625 111.671875 42.648438 112.34375 43.015625 C 112.257812 42.703125 112.140625 42.46875 112.140625 42.464844 C 112.058594 42.304688 112.125 42.109375 112.285156 42.027344 C 112.445312 41.949219 112.644531 42.015625 112.722656 42.175781 C 112.738281 42.203125 113.082031 42.902344 113.082031 43.621094 C 113.082031 44.292969 112.765625 45.890625 112.75 45.957031 C 112.71875 46.113281 112.585938 46.21875 112.433594 46.21875 C 112.410156 46.21875 112.390625 46.21875 112.367188 46.214844 C 112.191406 46.179688 112.078125 46.007812 112.113281 45.832031 Z M 113.707031 45.007812 C 113.761719 44.542969 113.738281 44.054688 113.636719 43.628906 L 113.417969 42.71875 C 113.378906 42.546875 113.484375 42.371094 113.660156 42.328125 C 113.835938 42.285156 114.011719 42.394531 114.054688 42.570312 L 114.269531 43.480469 C 114.390625 43.976562 114.417969 44.546875 114.355469 45.085938 L 114.253906 45.933594 C 114.234375 46.097656 114.09375 46.21875 113.929688 46.21875 C 113.917969 46.21875 113.902344 46.21875 113.890625 46.21875 C 113.710938 46.195312 113.585938 46.035156 113.605469 45.855469 Z M 117.289062 17.957031 C 117.289062 17.808594 117.1875 17.679688 117.042969 17.640625 L 116.179688 17.425781 C 115.714844 17.308594 115.351562 16.945312 115.230469 16.480469 L 115.011719 15.617188 C 114.976562 15.472656 114.847656 15.375 114.699219 15.375 C 114.550781 15.375 114.417969 15.472656 114.382812 15.617188 L 114.164062 16.480469 C 114.046875 16.945312 113.683594 17.304688 113.214844 17.425781 L 112.351562 17.640625 C 112.207031 17.679688 112.105469 17.808594 112.105469 17.957031 C 112.105469 18.105469 112.207031 18.234375 112.351562 18.273438 L 113.214844 18.488281 C 113.683594 18.609375 114.046875 18.96875 114.164062 19.4375 L 114.382812 20.296875 C 114.417969 20.441406 114.546875 20.542969 114.699219 20.542969 C 114.847656 20.542969 114.976562 20.441406 115.011719 20.296875 L 115.230469 19.4375 C 115.351562 18.96875 115.714844 18.609375 116.179688 18.492188 L 117.042969 18.273438 C 117.1875 18.234375 117.289062 18.105469 117.289062 17.957031 Z M 114.699219 18.988281 C 114.5 18.523438 114.128906 18.15625 113.664062 17.957031 C 114.128906 17.761719 114.5 17.390625 114.699219 16.925781 C 114.894531 17.390625 115.265625 17.761719 115.730469 17.957031 C 115.265625 18.15625 114.894531 18.523438 114.699219 18.988281 Z M 114.699219 18.988281 " clip-rule="nonzero"/></clipPath></defs><g clip-path="url(#0a2e29d9fd)"><path stroke-linecap="butt" transform="matrix(0.740131, 0, 0, 0.740131, 2.960541, 45.518085)" fill="none" stroke-linejoin="miter" d="M 0.000535822 0.498065 L 599.999489 0.498065 " stroke="#6e6c7e" stroke-width="1" stroke-opacity="1" stroke-miterlimit="4"/></g><g clip-path="url(#91f85268c6)"><g clip-path="url(#0003ae782e)"><path fill="#6e6c7e" d="M 102.957031 5.589844 L 102.957031 46.21875 L 133.292969 46.21875 L 133.292969 5.589844 Z M 102.957031 5.589844 " fill-opacity="1" fill-rule="nonzero"/></g></g></svg>